<?xml version="1.0" encoding="utf-8" standalone="no"?>
<!DOCTYPE svg PUBLIC "-//W3C//DTD SVG 1.1//EN"
  "http://www.w3.org/Graphics/SVG/1.1/DTD/svg11.dtd">
<svg xmlns:xlink="http://www.w3.org/1999/xlink" width="460.8pt" height="345.6pt" viewBox="0 0 460.8 345.6" xmlns="http://www.w3.org/2000/svg" version="1.1">
 <metadata>
  <rdf:RDF xmlns:dc="http://purl.org/dc/elements/1.1/" xmlns:cc="http://creativecommons.org/ns#" xmlns:rdf="http://www.w3.org/1999/02/22-rdf-syntax-ns#">
   <cc:Work>
    <dc:type rdf:resource="http://purl.org/dc/dcmitype/StillImage"/>
    <dc:date>2022-09-02T22:48:51.306548</dc:date>
    <dc:format>image/svg+xml</dc:format>
    <dc:creator>
     <cc:Agent>
      <dc:title>Matplotlib v3.5.2, https://matplotlib.org/</dc:title>
     </cc:Agent>
    </dc:creator>
   </cc:Work>
  </rdf:RDF>
 </metadata>
 <defs>
  <style type="text/css">*{stroke-linejoin: round; stroke-linecap: butt}</style>
 </defs>
 <g id="figure_1">
  <g id="patch_1">
   <path d="M 0 345.6 
L 460.8 345.6 
L 460.8 0 
L 0 0 
z
" style="fill: #ffffff"/>
  </g>
  <g id="axes_1">
   <g id="patch_2">
    <path d="M 57.6 307.584 
L 414.72 307.584 
L 414.72 41.472 
L 57.6 41.472 
L 57.6 307.584 
z
" style="fill: none"/>
   </g>
   <g id="matplotlib.axis_1">
    <g id="xtick_1">
     <g id="line2d_1">
      <defs>
       <path id="m6f591806e8" d="M 0 0 
L 0 9 
" style="stroke: #262626; stroke-width: 1.875"/>
      </defs>
      <g>
       <use xlink:href="#m6f591806e8" x="73.832727" y="307.584" style="fill: #262626; stroke: #262626; stroke-width: 1.875"/>
      </g>
     </g>
     <g id="text_1">
      <text style="fill: #262626; font: 16.5px 'sans-serif'; text-anchor: middle" x="73.832727" y="331.894391" transform="rotate(-0, 73.832727, 331.894391)">0</text>
     </g>
    </g>
    <g id="xtick_2">
     <g id="line2d_2">
      <g>
       <use xlink:href="#m6f591806e8" x="157.077483" y="307.584" style="fill: #262626; stroke: #262626; stroke-width: 1.875"/>
      </g>
     </g>
     <g id="text_2">
      <text style="fill: #262626; font: 16.5px 'sans-serif'; text-anchor: middle" x="157.077483" y="331.894391" transform="rotate(-0, 157.077483, 331.894391)">10</text>
     </g>
    </g>
    <g id="xtick_3">
     <g id="line2d_3">
      <g>
       <use xlink:href="#m6f591806e8" x="240.322238" y="307.584" style="fill: #262626; stroke: #262626; stroke-width: 1.875"/>
      </g>
     </g>
     <g id="text_3">
      <text style="fill: #262626; font: 16.5px 'sans-serif'; text-anchor: middle" x="240.322238" y="331.894391" transform="rotate(-0, 240.322238, 331.894391)">20</text>
     </g>
    </g>
    <g id="xtick_4">
     <g id="line2d_4">
      <g>
       <use xlink:href="#m6f591806e8" x="323.566993" y="307.584" style="fill: #262626; stroke: #262626; stroke-width: 1.875"/>
      </g>
     </g>
     <g id="text_4">
      <text style="fill: #262626; font: 16.5px 'sans-serif'; text-anchor: middle" x="323.566993" y="331.894391" transform="rotate(-0, 323.566993, 331.894391)">30</text>
     </g>
    </g>
    <g id="xtick_5">
     <g id="line2d_5">
      <g>
       <use xlink:href="#m6f591806e8" x="406.811748" y="307.584" style="fill: #262626; stroke: #262626; stroke-width: 1.875"/>
      </g>
     </g>
     <g id="text_5">
      <text style="fill: #262626; font: 16.5px 'sans-serif'; text-anchor: middle" x="406.811748" y="331.894391" transform="rotate(-0, 406.811748, 331.894391)">40</text>
     </g>
    </g>
   </g>
   <g id="matplotlib.axis_2">
    <g id="ytick_1">
     <g id="line2d_6">
      <defs>
       <path id="m4d7efd234d" d="M 0 0 
L -9 0 
" style="stroke: #262626; stroke-width: 1.875"/>
      </defs>
      <g>
       <use xlink:href="#m4d7efd234d" x="57.6" y="249.309963" style="fill: #262626; stroke: #262626; stroke-width: 1.875"/>
      </g>
     </g>
     <g id="text_6">
      <text style="fill: #262626; font: 16.5px 'sans-serif'; text-anchor: end" x="45.1" y="255.215159" transform="rotate(-0, 45.1, 255.215159)">−0.2</text>
     </g>
    </g>
    <g id="ytick_2">
     <g id="line2d_7">
      <g>
       <use xlink:href="#m4d7efd234d" x="57.6" y="187.317654" style="fill: #262626; stroke: #262626; stroke-width: 1.875"/>
      </g>
     </g>
     <g id="text_7">
      <text style="fill: #262626; font: 16.5px 'sans-serif'; text-anchor: end" x="45.1" y="193.222849" transform="rotate(-0, 45.1, 193.222849)">−0.1</text>
     </g>
    </g>
    <g id="ytick_3">
     <g id="line2d_8">
      <g>
       <use xlink:href="#m4d7efd234d" x="57.6" y="125.325345" style="fill: #262626; stroke: #262626; stroke-width: 1.875"/>
      </g>
     </g>
     <g id="text_8">
      <text style="fill: #262626; font: 16.5px 'sans-serif'; text-anchor: end" x="45.1" y="131.23054" transform="rotate(-0, 45.1, 131.23054)">0.0</text>
     </g>
    </g>
    <g id="ytick_4">
     <g id="line2d_9">
      <g>
       <use xlink:href="#m4d7efd234d" x="57.6" y="63.333035" style="fill: #262626; stroke: #262626; stroke-width: 1.875"/>
      </g>
     </g>
     <g id="text_9">
      <text style="fill: #262626; font: 16.5px 'sans-serif'; text-anchor: end" x="45.1" y="69.23823" transform="rotate(-0, 45.1, 69.23823)">0.1</text>
     </g>
    </g>
   </g>
   <g id="line2d_10">
    <path d="M 73.832727 125.325345 
L 82.157203 274.130015 
L 90.481678 171.435138 
L 98.806154 142.665284 
L 107.130629 229.87407 
L 115.455105 186.593373 
L 123.77958 117.098803 
L 132.104056 128.448192 
L 140.428531 199.295679 
L 148.753007 190.287796 
L 157.077483 208.435716 
L 165.401958 180.102146 
L 173.726434 198.155508 
L 182.050909 138.130137 
L 190.375385 149.043983 
L 198.69986 113.709293 
L 207.024336 53.568 
L 215.348811 130.940101 
L 223.673287 198.118875 
L 231.997762 257.196091 
L 240.322238 212.638282 
L 248.646713 243.534427 
L 256.971189 239.716227 
L 265.295664 222.385444 
L 273.62014 229.57947 
L 281.944615 295.488 
L 290.269091 295.407761 
L 298.593566 272.205809 
L 306.918042 277.434423 
L 315.242517 244.839799 
L 323.566993 197.344942 
L 331.891469 162.880599 
L 340.215944 155.072306 
L 348.54042 186.677084 
L 356.864895 142.236234 
L 365.189371 203.588303 
L 373.513846 141.931366 
L 381.838322 136.514981 
L 390.162797 187.995357 
L 398.487273 148.148278 
" clip-path="url(#pe5b6225ffd)" style="fill: none; stroke: #000000; stroke-width: 2.25; stroke-linecap: round"/>
   </g>
   <g id="patch_3">
    <path d="M 57.6 307.584 
L 57.6 41.472 
" style="fill: none; stroke: #262626; stroke-width: 1.875; stroke-linejoin: miter; stroke-linecap: square"/>
   </g>
   <g id="patch_4">
    <path d="M 57.6 307.584 
L 414.72 307.584 
" style="fill: none; stroke: #262626; stroke-width: 1.875; stroke-linejoin: miter; stroke-linecap: square"/>
   </g>
   <g id="text_10">
    <text style="fill: #262626; font: 18px 'sans-serif'; text-anchor: middle" x="236.16" y="35.472" transform="rotate(-0, 236.16, 35.472)">sum of rewards</text>
   </g>
  </g>
 </g>
 <defs>
  <clipPath id="pe5b6225ffd">
   <rect x="57.6" y="41.472" width="357.12" height="266.112"/>
  </clipPath>
 </defs>
</svg>
