<?xml version="1.0" encoding="utf-8" standalone="no"?>
<!DOCTYPE svg PUBLIC "-//W3C//DTD SVG 1.1//EN"
  "http://www.w3.org/Graphics/SVG/1.1/DTD/svg11.dtd">
<svg xmlns:xlink="http://www.w3.org/1999/xlink" width="432pt" height="288pt" viewBox="0 0 432 288" xmlns="http://www.w3.org/2000/svg" version="1.1">
 <metadata>
  <rdf:RDF xmlns:dc="http://purl.org/dc/elements/1.1/" xmlns:cc="http://creativecommons.org/ns#" xmlns:rdf="http://www.w3.org/1999/02/22-rdf-syntax-ns#">
   <cc:Work>
    <dc:type rdf:resource="http://purl.org/dc/dcmitype/StillImage"/>
    <dc:date>2022-09-02T17:26:38.389057</dc:date>
    <dc:format>image/svg+xml</dc:format>
    <dc:creator>
     <cc:Agent>
      <dc:title>Matplotlib v3.5.2, https://matplotlib.org/</dc:title>
     </cc:Agent>
    </dc:creator>
   </cc:Work>
  </rdf:RDF>
 </metadata>
 <defs>
  <style type="text/css">*{stroke-linejoin: round; stroke-linecap: butt}</style>
 </defs>
 <g id="figure_1">
  <g id="patch_1">
   <path d="M 0 288 
L 432 288 
L 432 0 
L 0 0 
L 0 288 
z
" style="fill: none"/>
  </g>
  <g id="axes_1">
   <g id="patch_2">
    <path d="M 54 252 
L 388.8 252 
L 388.8 34.56 
L 54 34.56 
L 54 252 
z
" style="fill: none"/>
   </g>
   <g id="matplotlib.axis_1">
    <g id="xtick_1">
     <g id="line2d_1">
      <defs>
       <path id="m5555902355" d="M 0 0 
L 0 9 
" style="stroke: #262626; stroke-width: 1.875"/>
      </defs>
      <g>
       <use xlink:href="#m5555902355" x="69.218182" y="252" style="fill: #262626; stroke: #262626; stroke-width: 1.875"/>
      </g>
     </g>
     <g id="text_1">
      <text style="fill: #262626; font: 16.5px 'sans-serif'; text-anchor: middle" x="69.218182" y="276.310391" transform="rotate(-0, 69.218182, 276.310391)">0</text>
     </g>
    </g>
    <g id="xtick_2">
     <g id="line2d_2">
      <g>
       <use xlink:href="#m5555902355" x="133.160122" y="252" style="fill: #262626; stroke: #262626; stroke-width: 1.875"/>
      </g>
     </g>
     <g id="text_2">
      <text style="fill: #262626; font: 16.5px 'sans-serif'; text-anchor: middle" x="133.160122" y="276.310391" transform="rotate(-0, 133.160122, 276.310391)">25</text>
     </g>
    </g>
    <g id="xtick_3">
     <g id="line2d_3">
      <g>
       <use xlink:href="#m5555902355" x="197.102063" y="252" style="fill: #262626; stroke: #262626; stroke-width: 1.875"/>
      </g>
     </g>
     <g id="text_3">
      <text style="fill: #262626; font: 16.5px 'sans-serif'; text-anchor: middle" x="197.102063" y="276.310391" transform="rotate(-0, 197.102063, 276.310391)">50</text>
     </g>
    </g>
    <g id="xtick_4">
     <g id="line2d_4">
      <g>
       <use xlink:href="#m5555902355" x="261.044003" y="252" style="fill: #262626; stroke: #262626; stroke-width: 1.875"/>
      </g>
     </g>
     <g id="text_4">
      <text style="fill: #262626; font: 16.5px 'sans-serif'; text-anchor: middle" x="261.044003" y="276.310391" transform="rotate(-0, 261.044003, 276.310391)">75</text>
     </g>
    </g>
    <g id="xtick_5">
     <g id="line2d_5">
      <g>
       <use xlink:href="#m5555902355" x="324.985943" y="252" style="fill: #262626; stroke: #262626; stroke-width: 1.875"/>
      </g>
     </g>
     <g id="text_5">
      <text style="fill: #262626; font: 16.5px 'sans-serif'; text-anchor: middle" x="324.985943" y="276.310391" transform="rotate(-0, 324.985943, 276.310391)">100</text>
     </g>
    </g>
   </g>
   <g id="matplotlib.axis_2">
    <g id="ytick_1">
     <g id="line2d_6">
      <defs>
       <path id="m53f2c1de13" d="M 0 0 
L -9 0 
" style="stroke: #262626; stroke-width: 1.875"/>
      </defs>
      <g>
       <use xlink:href="#m53f2c1de13" x="54" y="223.345917" style="fill: #262626; stroke: #262626; stroke-width: 1.875"/>
      </g>
     </g>
     <g id="text_6">
      <text style="fill: #262626; font: 16.5px 'sans-serif'; text-anchor: end" x="41.5" y="229.251112" transform="rotate(-0, 41.5, 229.251112)">0</text>
     </g>
    </g>
    <g id="ytick_2">
     <g id="line2d_7">
      <g>
       <use xlink:href="#m53f2c1de13" x="54" y="185.35826" style="fill: #262626; stroke: #262626; stroke-width: 1.875"/>
      </g>
     </g>
     <g id="text_7">
      <text style="fill: #262626; font: 16.5px 'sans-serif'; text-anchor: end" x="41.5" y="191.263455" transform="rotate(-0, 41.5, 191.263455)">5</text>
     </g>
    </g>
    <g id="ytick_3">
     <g id="line2d_8">
      <g>
       <use xlink:href="#m53f2c1de13" x="54" y="147.370603" style="fill: #262626; stroke: #262626; stroke-width: 1.875"/>
      </g>
     </g>
     <g id="text_8">
      <text style="fill: #262626; font: 16.5px 'sans-serif'; text-anchor: end" x="41.5" y="153.275798" transform="rotate(-0, 41.5, 153.275798)">10</text>
     </g>
    </g>
    <g id="ytick_4">
     <g id="line2d_9">
      <g>
       <use xlink:href="#m53f2c1de13" x="54" y="109.382946" style="fill: #262626; stroke: #262626; stroke-width: 1.875"/>
      </g>
     </g>
     <g id="text_9">
      <text style="fill: #262626; font: 16.5px 'sans-serif'; text-anchor: end" x="41.5" y="115.288142" transform="rotate(-0, 41.5, 115.288142)">15</text>
     </g>
    </g>
    <g id="ytick_5">
     <g id="line2d_10">
      <g>
       <use xlink:href="#m53f2c1de13" x="54" y="71.39529" style="fill: #262626; stroke: #262626; stroke-width: 1.875"/>
      </g>
     </g>
     <g id="text_10">
      <text style="fill: #262626; font: 16.5px 'sans-serif'; text-anchor: end" x="41.5" y="77.300485" transform="rotate(-0, 41.5, 77.300485)">20</text>
     </g>
    </g>
   </g>
   <g id="line2d_11">
    <path d="M 69.218182 223.345917 
L 71.775859 224.420431 
L 74.333537 226.286872 
L 76.891215 228.374484 
L 79.448892 230.470558 
L 82.00657 232.567182 
L 84.564248 234.54916 
L 87.121925 236.285142 
L 89.679603 236.944645 
L 92.23728 238.166619 
L 94.794958 239.674532 
L 97.352636 240.318398 
L 99.910313 241.100845 
L 102.467991 241.760428 
L 105.025668 242.116364 
L 107.583346 241.871708 
L 110.141024 241.816351 
L 112.698701 241.417818 
L 115.256379 240.735535 
L 117.814057 240.156253 
L 120.371734 239.49961 
L 122.929412 238.743408 
L 125.487089 237.830094 
L 128.044767 236.049495 
L 130.602445 234.630921 
L 133.160122 232.249396 
L 135.7178 232.891814 
L 138.275477 233.637433 
L 140.833155 233.736166 
L 143.390833 233.181296 
L 145.94851 231.960171 
L 148.506188 230.163462 
L 151.063866 228.345775 
L 153.621543 226.527328 
L 156.179221 224.463539 
L 158.736898 222.373722 
L 161.294576 220.418336 
L 163.852254 218.925384 
L 166.409931 217.738607 
L 168.967609 216.403953 
L 171.525286 214.741346 
L 174.082964 213.103784 
L 176.640642 211.430638 
L 179.198319 209.962956 
L 181.755997 208.419762 
L 184.313675 207.051291 
L 186.871352 205.618247 
L 189.42903 204.100321 
L 191.986707 202.707068 
L 194.544385 201.659403 
L 197.102063 200.303992 
L 199.65974 198.630272 
L 202.217418 196.575091 
L 204.775095 194.344013 
L 207.332773 191.786793 
L 209.890451 188.71395 
L 212.448128 185.777276 
L 215.005806 184.632058 
L 217.563484 183.338818 
L 220.121161 182.269157 
L 222.678839 180.84691 
L 225.236516 179.148346 
L 227.794194 176.849598 
L 230.351872 174.106568 
L 232.909549 171.453103 
L 235.467227 168.984161 
L 238.024905 166.647939 
L 240.582582 164.352482 
L 243.14026 161.578325 
L 245.697937 158.475998 
L 248.255615 155.433553 
L 250.813293 152.971088 
L 253.37097 150.639909 
L 255.928648 147.80158 
L 258.486325 145.045639 
L 261.044003 142.795107 
L 263.601681 140.493491 
L 266.159358 138.035249 
L 268.717036 135.420138 
L 271.274714 132.554286 
L 273.832391 129.409552 
L 276.390069 126.781214 
L 278.947746 125.135989 
L 281.505424 123.956358 
L 284.063102 122.579201 
L 286.620779 121.384953 
L 289.178457 119.528064 
L 291.736134 118.00251 
L 294.293812 115.945464 
L 296.85149 114.400657 
L 299.409167 113.024872 
L 301.966845 111.525971 
L 304.524523 109.680679 
L 307.0822 107.807579 
L 309.639878 106.182126 
L 312.197555 104.49503 
L 314.755233 103.161862 
L 317.312911 101.07353 
L 319.870588 99.150044 
L 322.428266 97.712822 
L 324.985943 96.003573 
L 327.543621 93.811132 
L 330.101299 91.036649 
L 332.658976 88.103357 
L 335.216654 85.183466 
L 337.774332 82.204032 
L 340.332009 79.144188 
L 342.889687 76.203311 
L 345.447364 73.385691 
L 348.005042 70.609041 
L 350.56272 68.17878 
L 353.120397 65.543659 
L 355.678075 62.787263 
L 358.235752 59.574172 
L 360.79343 56.657158 
L 363.351108 53.730988 
L 365.908785 51.240795 
L 368.466463 49.107132 
L 371.024141 46.73652 
L 373.581818 44.443636 
" clip-path="url(#p4099d7fad0)" style="fill: none; stroke: #000000; stroke-width: 2.25; stroke-linecap: round"/>
   </g>
   <g id="patch_3">
    <path d="M 54 252 
L 54 34.56 
" style="fill: none; stroke: #262626; stroke-width: 1.875; stroke-linejoin: miter; stroke-linecap: square"/>
   </g>
   <g id="patch_4">
    <path d="M 54 252 
L 388.8 252 
" style="fill: none; stroke: #262626; stroke-width: 1.875; stroke-linejoin: miter; stroke-linecap: square"/>
   </g>
   <g id="text_11">
    <text style="fill: #262626; font: 18px 'sans-serif'; text-anchor: middle" x="221.4" y="28.56" transform="rotate(-0, 221.4, 28.56)">sum of rewards</text>
   </g>
  </g>
 </g>
 <defs>
  <clipPath id="p4099d7fad0">
   <rect x="54" y="34.56" width="334.8" height="217.44"/>
  </clipPath>
 </defs>
</svg>
