<?xml version="1.0" encoding="utf-8" standalone="no"?>
<!DOCTYPE svg PUBLIC "-//W3C//DTD SVG 1.1//EN"
  "http://www.w3.org/Graphics/SVG/1.1/DTD/svg11.dtd">
<svg xmlns:xlink="http://www.w3.org/1999/xlink" width="460.8pt" height="345.6pt" viewBox="0 0 460.8 345.6" xmlns="http://www.w3.org/2000/svg" version="1.1">
 <metadata>
  <rdf:RDF xmlns:dc="http://purl.org/dc/elements/1.1/" xmlns:cc="http://creativecommons.org/ns#" xmlns:rdf="http://www.w3.org/1999/02/22-rdf-syntax-ns#">
   <cc:Work>
    <dc:type rdf:resource="http://purl.org/dc/dcmitype/StillImage"/>
    <dc:date>2022-09-02T23:16:22.772605</dc:date>
    <dc:format>image/svg+xml</dc:format>
    <dc:creator>
     <cc:Agent>
      <dc:title>Matplotlib v3.5.2, https://matplotlib.org/</dc:title>
     </cc:Agent>
    </dc:creator>
   </cc:Work>
  </rdf:RDF>
 </metadata>
 <defs>
  <style type="text/css">*{stroke-linejoin: round; stroke-linecap: butt}</style>
 </defs>
 <g id="figure_1">
  <g id="patch_1">
   <path d="M 0 345.6 
L 460.8 345.6 
L 460.8 0 
L 0 0 
z
" style="fill: #ffffff"/>
  </g>
  <g id="axes_1">
   <g id="patch_2">
    <path d="M 57.6 307.584 
L 414.72 307.584 
L 414.72 41.472 
L 57.6 41.472 
L 57.6 307.584 
z
" style="fill: none"/>
   </g>
   <g id="matplotlib.axis_1">
    <g id="xtick_1">
     <g id="line2d_1">
      <defs>
       <path id="m2b9f90999c" d="M 0 0 
L 0 9 
" style="stroke: #262626; stroke-width: 1.875"/>
      </defs>
      <g>
       <use xlink:href="#m2b9f90999c" x="73.832727" y="307.584" style="fill: #262626; stroke: #262626; stroke-width: 1.875"/>
      </g>
     </g>
     <g id="text_1">
      <text style="fill: #262626; font: 16.5px 'sans-serif'; text-anchor: middle" x="73.832727" y="331.894391" transform="rotate(-0, 73.832727, 331.894391)">0</text>
     </g>
    </g>
    <g id="xtick_2">
     <g id="line2d_2">
      <g>
       <use xlink:href="#m2b9f90999c" x="164.823351" y="307.584" style="fill: #262626; stroke: #262626; stroke-width: 1.875"/>
      </g>
     </g>
     <g id="text_2">
      <text style="fill: #262626; font: 16.5px 'sans-serif'; text-anchor: middle" x="164.823351" y="331.894391" transform="rotate(-0, 164.823351, 331.894391)">500</text>
     </g>
    </g>
    <g id="xtick_3">
     <g id="line2d_3">
      <g>
       <use xlink:href="#m2b9f90999c" x="255.813975" y="307.584" style="fill: #262626; stroke: #262626; stroke-width: 1.875"/>
      </g>
     </g>
     <g id="text_3">
      <text style="fill: #262626; font: 16.5px 'sans-serif'; text-anchor: middle" x="255.813975" y="331.894391" transform="rotate(-0, 255.813975, 331.894391)">1000</text>
     </g>
    </g>
    <g id="xtick_4">
     <g id="line2d_4">
      <g>
       <use xlink:href="#m2b9f90999c" x="346.804598" y="307.584" style="fill: #262626; stroke: #262626; stroke-width: 1.875"/>
      </g>
     </g>
     <g id="text_4">
      <text style="fill: #262626; font: 16.5px 'sans-serif'; text-anchor: middle" x="346.804598" y="331.894391" transform="rotate(-0, 346.804598, 331.894391)">1500</text>
     </g>
    </g>
    <g id="text_5">
     <text style="fill: #262626; font: 18px 'sans-serif'; text-anchor: middle" x="236.16" y="352.277203" transform="rotate(-0, 236.16, 352.277203)">Time Steps</text>
    </g>
   </g>
   <g id="matplotlib.axis_2">
    <g id="ytick_1">
     <g id="line2d_5">
      <defs>
       <path id="mb92e4c1668" d="M 0 0 
L -9 0 
" style="stroke: #262626; stroke-width: 1.875"/>
      </defs>
      <g>
       <use xlink:href="#mb92e4c1668" x="57.6" y="294.058964" style="fill: #262626; stroke: #262626; stroke-width: 1.875"/>
      </g>
     </g>
     <g id="text_6">
      <text style="fill: #262626; font: 16.5px 'sans-serif'; text-anchor: end" x="45.1" y="299.964159" transform="rotate(-0, 45.1, 299.964159)">0</text>
     </g>
    </g>
    <g id="ytick_2">
     <g id="line2d_6">
      <g>
       <use xlink:href="#mb92e4c1668" x="57.6" y="244.323083" style="fill: #262626; stroke: #262626; stroke-width: 1.875"/>
      </g>
     </g>
     <g id="text_7">
      <text style="fill: #262626; font: 16.5px 'sans-serif'; text-anchor: end" x="45.1" y="250.228278" transform="rotate(-0, 45.1, 250.228278)">50</text>
     </g>
    </g>
    <g id="ytick_3">
     <g id="line2d_7">
      <g>
       <use xlink:href="#mb92e4c1668" x="57.6" y="194.587202" style="fill: #262626; stroke: #262626; stroke-width: 1.875"/>
      </g>
     </g>
     <g id="text_8">
      <text style="fill: #262626; font: 16.5px 'sans-serif'; text-anchor: end" x="45.1" y="200.492398" transform="rotate(-0, 45.1, 200.492398)">100</text>
     </g>
    </g>
    <g id="ytick_4">
     <g id="line2d_8">
      <g>
       <use xlink:href="#mb92e4c1668" x="57.6" y="144.851322" style="fill: #262626; stroke: #262626; stroke-width: 1.875"/>
      </g>
     </g>
     <g id="text_9">
      <text style="fill: #262626; font: 16.5px 'sans-serif'; text-anchor: end" x="45.1" y="150.756517" transform="rotate(-0, 45.1, 150.756517)">150</text>
     </g>
    </g>
    <g id="ytick_5">
     <g id="line2d_9">
      <g>
       <use xlink:href="#mb92e4c1668" x="57.6" y="95.115441" style="fill: #262626; stroke: #262626; stroke-width: 1.875"/>
      </g>
     </g>
     <g id="text_10">
      <text style="fill: #262626; font: 16.5px 'sans-serif'; text-anchor: end" x="45.1" y="101.020636" transform="rotate(-0, 45.1, 101.020636)">200</text>
     </g>
    </g>
    <g id="ytick_6">
     <g id="line2d_10">
      <g>
       <use xlink:href="#mb92e4c1668" x="57.6" y="45.37956" style="fill: #262626; stroke: #262626; stroke-width: 1.875"/>
      </g>
     </g>
     <g id="text_11">
      <text style="fill: #262626; font: 16.5px 'sans-serif'; text-anchor: end" x="45.1" y="51.284756" transform="rotate(-0, 45.1, 51.284756)">250</text>
     </g>
    </g>
    <g id="text_12">
     <text style="fill: #262626; font: 18px 'sans-serif'; text-anchor: middle" x="9.995859" y="174.528" transform="rotate(-90, 9.995859, 174.528)">Reward points</text>
    </g>
   </g>
   <g id="line2d_11">
    <path d="M 73.832727 294.058964 
L 74.19669 294.422963 
L 74.742634 294.685956 
L 75.288577 295.0955 
L 76.198483 295.488 
L 76.562446 295.428427 
L 76.926408 295.322674 
L 77.290371 295.298485 
L 78.200277 294.643413 
L 78.56424 294.082466 
L 79.110183 294.13585 
L 79.474146 294.078075 
L 80.566033 293.486852 
L 80.929996 293.031169 
L 81.657921 291.813186 
L 82.93179 290.834434 
L 83.659715 290.395826 
L 84.023677 289.887215 
L 84.569621 289.946388 
L 84.933583 289.858505 
L 85.661508 289.474443 
L 86.571415 288.965213 
L 87.845283 287.21507 
L 88.209246 286.966489 
L 88.75519 286.781512 
L 89.119152 286.478866 
L 89.847077 286.170329 
L 91.120946 285.377146 
L 91.484908 285.169589 
L 91.848871 284.850282 
L 92.212833 284.696239 
L 92.576796 284.488528 
L 93.12274 284.32771 
L 94.578589 283.526506 
L 96.034439 282.129804 
L 96.398402 281.483203 
L 96.944346 281.457981 
L 98.036233 280.78408 
L 98.764158 280.091066 
L 99.310102 279.443961 
L 100.401989 278.213838 
L 100.947933 277.844649 
L 101.675858 277.343044 
L 101.857839 277.311326 
L 102.403783 276.692787 
L 103.131708 276.508754 
L 103.677652 276.004984 
L 105.497464 274.589361 
L 106.043408 274.598602 
L 106.589352 274.368483 
L 107.317277 274.112814 
L 108.045202 273.555807 
L 109.865014 271.111996 
L 110.774921 270.627732 
L 111.320864 270.204963 
L 111.684827 269.918249 
L 112.958695 268.325488 
L 114.232564 267.133463 
L 114.414545 267.107206 
L 115.14247 266.451256 
L 115.506433 266.152129 
L 116.234358 265.38507 
L 117.144264 264.673006 
L 117.326245 264.688116 
L 118.964077 263.80784 
L 119.873983 262.725617 
L 120.237945 262.512233 
L 121.329833 261.463764 
L 121.875777 261.026279 
L 122.239739 260.912929 
L 123.87757 259.369962 
L 125.151439 259.109661 
L 126.243327 258.578416 
L 126.607289 258.41255 
L 127.153233 257.725487 
L 128.24512 256.05379 
L 129.518989 254.809987 
L 130.974839 253.776267 
L 131.520783 253.795232 
L 132.066726 253.769348 
L 133.340595 253.096766 
L 133.704558 252.642241 
L 134.796445 250.808342 
L 135.52437 250.229232 
L 136.070314 250.112085 
L 136.616258 249.976158 
L 137.344183 249.587259 
L 138.254089 248.997445 
L 138.982014 247.888671 
L 139.527958 247.026272 
L 139.89192 246.982614 
L 141.34777 245.074574 
L 144.623433 242.485797 
L 145.897301 241.22364 
L 146.807208 240.885865 
L 147.535132 240.412034 
L 148.445039 239.337101 
L 149.172964 238.368938 
L 149.536926 238.204742 
L 149.900889 238.08657 
L 151.53872 236.957917 
L 153.358532 234.511498 
L 154.086457 233.934955 
L 154.814382 233.630285 
L 155.360326 233.139599 
L 155.724289 233.015599 
L 156.088251 232.847294 
L 156.270232 232.829489 
L 156.634195 232.342392 
L 156.998157 231.899843 
L 157.36212 231.984082 
L 159.181932 231.034966 
L 159.545895 230.68308 
L 160.455801 229.441502 
L 161.365707 228.590664 
L 161.911651 228.190043 
L 162.639576 227.890371 
L 163.367501 227.317627 
L 164.095426 227.148744 
L 165.005332 226.489841 
L 165.369295 226.269734 
L 166.279201 225.158173 
L 167.007126 224.216429 
L 167.735051 223.473361 
L 168.462976 222.99711 
L 168.826938 222.776468 
L 169.554863 222.53903 
L 169.918826 222.306406 
L 171.010713 221.186649 
L 171.556657 220.977797 
L 172.284582 220.375156 
L 173.37647 219.19976 
L 173.922413 218.741139 
L 174.104395 218.690054 
L 174.650338 217.99975 
L 175.196282 217.927689 
L 176.652132 216.841293 
L 177.198076 216.172506 
L 177.74402 215.769674 
L 178.289963 215.288073 
L 178.653926 215.110714 
L 179.381851 214.9034 
L 179.745813 214.468673 
L 179.927795 214.151167 
L 181.019682 213.99453 
L 182.11157 213.3819 
L 182.475532 212.911134 
L 183.021476 212.182803 
L 183.385438 211.666488 
L 183.749401 211.475553 
L 185.569213 209.995522 
L 185.933176 209.438664 
L 187.207044 208.97184 
L 188.480913 207.93556 
L 189.026857 207.343164 
L 189.390819 207.205031 
L 189.754782 207.182075 
L 191.574594 206.535148 
L 192.120538 206.022219 
L 193.030444 205.48058 
L 193.394407 205.367083 
L 193.758369 205.032968 
L 194.122332 204.605429 
L 195.214219 204.607846 
L 195.760163 204.302746 
L 197.034032 203.330452 
L 197.761957 202.583944 
L 198.489882 202.185169 
L 199.035826 201.736833 
L 199.763751 200.999301 
L 200.127713 200.925086 
L 200.491675 200.755114 
L 201.583563 199.66962 
L 201.947525 199.582179 
L 202.311488 199.670413 
L 203.039413 199.246668 
L 204.313282 198.444079 
L 205.769132 197.035362 
L 206.497057 196.678398 
L 208.134888 195.284706 
L 209.044794 194.157911 
L 209.408757 193.91879 
L 209.772719 193.710923 
L 210.682625 192.723932 
L 211.41055 192.309725 
L 211.592532 192.05141 
L 212.502438 192.165425 
L 213.048382 191.937557 
L 214.504232 191.088872 
L 215.960082 188.934281 
L 216.688007 188.282011 
L 217.051969 188.203665 
L 217.415932 187.866048 
L 217.597913 187.592741 
L 218.143857 187.592566 
L 218.6898 187.333457 
L 219.963669 186.504059 
L 221.237538 184.999196 
L 221.6015 184.983819 
L 222.147444 184.639586 
L 222.693388 184.056594 
L 223.05735 183.638783 
L 223.603294 183.385088 
L 226.151031 181.374223 
L 226.878956 180.186343 
L 227.060938 180.286117 
L 227.788863 179.868629 
L 228.516788 178.97281 
L 228.88075 178.777679 
L 229.426694 178.01539 
L 230.154619 177.178807 
L 231.246506 175.700268 
L 231.974431 174.137667 
L 232.702356 173.627975 
L 233.066319 173.559842 
L 234.886131 171.623337 
L 235.614056 170.722202 
L 236.341981 170.122841 
L 238.161794 168.346467 
L 238.707737 168.219907 
L 239.617644 167.540835 
L 240.52755 166.949365 
L 242.529344 164.670573 
L 243.075287 164.253181 
L 244.349156 162.997346 
L 244.8951 162.776436 
L 245.805006 161.980194 
L 246.35095 161.209265 
L 247.078875 160.69728 
L 247.624819 160.335446 
L 247.988781 159.875198 
L 248.352744 159.888517 
L 248.716706 159.823913 
L 249.26265 159.402497 
L 250.536519 158.13714 
L 251.446425 157.879781 
L 253.812181 156.245965 
L 254.176143 156.020422 
L 255.268031 155.167474 
L 256.723881 154.251743 
L 257.451806 153.422411 
L 258.907656 153.214802 
L 259.271618 152.915539 
L 259.817562 152.271601 
L 260.181525 152.282747 
L 261.819356 151.423085 
L 262.3653 150.785845 
L 262.729262 150.653723 
L 263.093225 150.575153 
L 264.731056 149.344511 
L 265.458981 148.392089 
L 266.368887 147.442676 
L 268.006718 146.233651 
L 268.552662 145.507407 
L 269.462568 145.454816 
L 269.826531 145.27098 
L 271.282381 143.882475 
L 272.920212 141.839844 
L 273.648137 141.211391 
L 274.376062 140.752444 
L 274.740024 140.793951 
L 275.467949 140.607134 
L 276.559837 140.015385 
L 277.469743 138.860441 
L 278.743612 137.692145 
L 279.107574 137.485559 
L 279.471537 137.076761 
L 280.563424 137.213663 
L 281.109368 137.016737 
L 281.837293 136.75046 
L 282.201256 136.63756 
L 282.565218 136.237358 
L 283.839087 134.258125 
L 284.203049 133.980724 
L 284.567012 133.729672 
L 285.112956 133.719863 
L 285.476918 133.606024 
L 286.568806 133.055359 
L 287.296731 132.280659 
L 288.024656 132.363789 
L 288.934562 132.055621 
L 289.662487 131.759118 
L 290.572393 130.546993 
L 290.936355 130.031482 
L 291.118337 130.038917 
L 291.66428 129.480916 
L 292.028243 129.140761 
L 292.392205 128.943396 
L 293.666074 128.727013 
L 294.57598 127.767524 
L 295.121924 127.651904 
L 296.213812 126.848265 
L 296.759755 126.614302 
L 298.215605 125.343286 
L 298.94353 124.508998 
L 299.671455 124.02577 
L 300.581362 123.640709 
L 301.127305 123.132998 
L 301.491268 123.111765 
L 302.037212 122.844724 
L 303.129099 122.199815 
L 303.493062 121.823657 
L 304.039005 121.144933 
L 304.948912 120.227177 
L 305.312874 119.835033 
L 305.858818 119.607608 
L 306.22278 119.163462 
L 306.950705 119.261736 
L 307.314668 119.11388 
L 308.770518 118.272096 
L 310.226368 116.305923 
L 310.59033 116.055331 
L 310.954293 115.982606 
L 313.138068 114.499155 
L 313.50203 114.429181 
L 314.775899 113.294734 
L 315.321843 112.819143 
L 316.231749 112.611856 
L 317.141655 112.179473 
L 317.505618 112.011905 
L 318.415524 110.955154 
L 318.779486 110.526408 
L 319.143449 110.29733 
L 320.053355 109.439001 
L 321.691186 108.107449 
L 322.055149 108.068991 
L 323.510999 107.328329 
L 326.786661 104.543156 
L 327.332605 104.426773 
L 328.06053 103.864642 
L 329.152417 102.859426 
L 331.154211 101.120983 
L 331.700155 101.152003 
L 333.519967 100.357793 
L 334.065911 99.592153 
L 334.793836 98.52959 
L 334.975817 98.308047 
L 335.157799 98.28322 
L 335.521761 97.845463 
L 335.885724 97.356009 
L 336.249686 97.017653 
L 336.613649 96.625621 
L 336.977611 96.383015 
L 337.523555 96.292342 
L 338.979405 95.416789 
L 339.889311 94.797623 
L 340.435255 94.186496 
L 341.527142 93.63525 
L 342.437049 92.94533 
L 343.164974 92.017721 
L 344.438842 90.748893 
L 345.166767 90.274821 
L 345.712711 90.22167 
L 347.168561 89.370099 
L 347.532523 89.054012 
L 348.806392 87.533008 
L 350.808186 85.545719 
L 352.264036 85.197626 
L 353.355923 84.274045 
L 354.447811 82.926964 
L 354.993755 82.852976 
L 355.539698 82.435044 
L 355.903661 82.205606 
L 357.359511 81.758078 
L 357.723473 81.643054 
L 358.087436 81.448134 
L 358.997342 80.556365 
L 359.179323 80.641418 
L 359.725267 80.466657 
L 360.817155 79.876084 
L 361.545079 79.772291 
L 361.909042 79.529755 
L 362.454986 78.851349 
L 362.818948 79.009082 
L 363.182911 78.915198 
L 364.092817 78.527553 
L 364.456779 78.407314 
L 365.184704 77.612681 
L 365.730648 76.963042 
L 366.094611 76.74841 
L 368.096404 75.545523 
L 368.278386 75.247778 
L 369.006311 75.283958 
L 370.644142 74.543496 
L 371.918011 72.902511 
L 372.281973 72.818979 
L 372.645936 72.568353 
L 373.191879 71.796541 
L 374.101786 71.421484 
L 374.829711 70.844822 
L 375.557636 70.372544 
L 376.103579 70.331209 
L 376.831504 69.794924 
L 377.195467 69.735892 
L 377.559429 69.502455 
L 378.469336 68.850294 
L 379.015279 68.672974 
L 380.107167 67.684037 
L 380.65311 67.304175 
L 381.199054 66.534819 
L 381.744998 66.55253 
L 382.836885 65.749826 
L 383.56481 64.911788 
L 383.928773 64.741274 
L 385.566604 63.237054 
L 385.930567 63.140617 
L 388.296323 61.139982 
L 388.660285 60.985993 
L 390.662079 59.304288 
L 391.208023 59.262566 
L 393.027835 58.42241 
L 393.75576 57.386378 
L 394.301704 56.652367 
L 395.029629 55.902861 
L 395.939535 55.088053 
L 396.303498 54.829312 
L 396.66746 54.638126 
L 397.031423 54.52026 
L 397.759348 54.042934 
L 398.12331 53.568 
L 398.487273 53.594607 
L 398.487273 53.594607 
" clip-path="url(#p4ffe6c82ca)" style="fill: none; stroke: #000000; stroke-width: 2.25; stroke-linecap: round"/>
   </g>
   <g id="patch_3">
    <path d="M 57.6 307.584 
L 57.6 41.472 
" style="fill: none; stroke: #262626; stroke-width: 1.875; stroke-linejoin: miter; stroke-linecap: square"/>
   </g>
   <g id="patch_4">
    <path d="M 57.6 307.584 
L 414.72 307.584 
" style="fill: none; stroke: #262626; stroke-width: 1.875; stroke-linejoin: miter; stroke-linecap: square"/>
   </g>
   <g id="text_13">
    <text style="fill: #262626; font: 18px 'sans-serif'; text-anchor: middle" x="236.16" y="35.472" transform="rotate(-0, 236.16, 35.472)">Sum of Rewards</text>
   </g>
  </g>
 </g>
 <defs>
  <clipPath id="p4ffe6c82ca">
   <rect x="57.6" y="41.472" width="357.12" height="266.112"/>
  </clipPath>
 </defs>
</svg>
