<?xml version="1.0" encoding="utf-8" standalone="no"?>
<!DOCTYPE svg PUBLIC "-//W3C//DTD SVG 1.1//EN"
  "http://www.w3.org/Graphics/SVG/1.1/DTD/svg11.dtd">
<svg xmlns:xlink="http://www.w3.org/1999/xlink" width="432pt" height="288pt" viewBox="0 0 432 288" xmlns="http://www.w3.org/2000/svg" version="1.1">
 <metadata>
  <rdf:RDF xmlns:dc="http://purl.org/dc/elements/1.1/" xmlns:cc="http://creativecommons.org/ns#" xmlns:rdf="http://www.w3.org/1999/02/22-rdf-syntax-ns#">
   <cc:Work>
    <dc:type rdf:resource="http://purl.org/dc/dcmitype/StillImage"/>
    <dc:date>2022-09-02T17:26:51.805084</dc:date>
    <dc:format>image/svg+xml</dc:format>
    <dc:creator>
     <cc:Agent>
      <dc:title>Matplotlib v3.5.2, https://matplotlib.org/</dc:title>
     </cc:Agent>
    </dc:creator>
   </cc:Work>
  </rdf:RDF>
 </metadata>
 <defs>
  <style type="text/css">*{stroke-linejoin: round; stroke-linecap: butt}</style>
 </defs>
 <g id="figure_1">
  <g id="patch_1">
   <path d="M 0 288 
L 432 288 
L 432 0 
L 0 0 
L 0 288 
z
" style="fill: none"/>
  </g>
  <g id="axes_1">
   <g id="patch_2">
    <path d="M 54 252 
L 388.8 252 
L 388.8 34.56 
L 54 34.56 
L 54 252 
z
" style="fill: none"/>
   </g>
   <g id="matplotlib.axis_1">
    <g id="xtick_1">
     <g id="line2d_1">
      <defs>
       <path id="m632eff5cf4" d="M 0 0 
L 0 9 
" style="stroke: #262626; stroke-width: 1.875"/>
      </defs>
      <g>
       <use xlink:href="#m632eff5cf4" x="69.218182" y="252" style="fill: #262626; stroke: #262626; stroke-width: 1.875"/>
      </g>
     </g>
     <g id="text_1">
      <text style="fill: #262626; font: 16.5px 'sans-serif'; text-anchor: middle" x="69.218182" y="276.310391" transform="rotate(-0, 69.218182, 276.310391)">0</text>
     </g>
    </g>
    <g id="xtick_2">
     <g id="line2d_2">
      <g>
       <use xlink:href="#m632eff5cf4" x="130.581818" y="252" style="fill: #262626; stroke: #262626; stroke-width: 1.875"/>
      </g>
     </g>
     <g id="text_2">
      <text style="fill: #262626; font: 16.5px 'sans-serif'; text-anchor: middle" x="130.581818" y="276.310391" transform="rotate(-0, 130.581818, 276.310391)">25</text>
     </g>
    </g>
    <g id="xtick_3">
     <g id="line2d_3">
      <g>
       <use xlink:href="#m632eff5cf4" x="191.945455" y="252" style="fill: #262626; stroke: #262626; stroke-width: 1.875"/>
      </g>
     </g>
     <g id="text_3">
      <text style="fill: #262626; font: 16.5px 'sans-serif'; text-anchor: middle" x="191.945455" y="276.310391" transform="rotate(-0, 191.945455, 276.310391)">50</text>
     </g>
    </g>
    <g id="xtick_4">
     <g id="line2d_4">
      <g>
       <use xlink:href="#m632eff5cf4" x="253.309091" y="252" style="fill: #262626; stroke: #262626; stroke-width: 1.875"/>
      </g>
     </g>
     <g id="text_4">
      <text style="fill: #262626; font: 16.5px 'sans-serif'; text-anchor: middle" x="253.309091" y="276.310391" transform="rotate(-0, 253.309091, 276.310391)">75</text>
     </g>
    </g>
    <g id="xtick_5">
     <g id="line2d_5">
      <g>
       <use xlink:href="#m632eff5cf4" x="314.672727" y="252" style="fill: #262626; stroke: #262626; stroke-width: 1.875"/>
      </g>
     </g>
     <g id="text_5">
      <text style="fill: #262626; font: 16.5px 'sans-serif'; text-anchor: middle" x="314.672727" y="276.310391" transform="rotate(-0, 314.672727, 276.310391)">100</text>
     </g>
    </g>
    <g id="xtick_6">
     <g id="line2d_6">
      <g>
       <use xlink:href="#m632eff5cf4" x="376.036364" y="252" style="fill: #262626; stroke: #262626; stroke-width: 1.875"/>
      </g>
     </g>
     <g id="text_6">
      <text style="fill: #262626; font: 16.5px 'sans-serif'; text-anchor: middle" x="376.036364" y="276.310391" transform="rotate(-0, 376.036364, 276.310391)">125</text>
     </g>
    </g>
   </g>
   <g id="matplotlib.axis_2">
    <g id="ytick_1">
     <g id="line2d_7">
      <defs>
       <path id="m554abfcc3d" d="M 0 0 
L -9 0 
" style="stroke: #262626; stroke-width: 1.875"/>
      </defs>
      <g>
       <use xlink:href="#m554abfcc3d" x="54" y="224.467989" style="fill: #262626; stroke: #262626; stroke-width: 1.875"/>
      </g>
     </g>
     <g id="text_7">
      <text style="fill: #262626; font: 16.5px 'sans-serif'; text-anchor: end" x="41.5" y="230.373185" transform="rotate(-0, 41.5, 230.373185)">0</text>
     </g>
    </g>
    <g id="ytick_2">
     <g id="line2d_8">
      <g>
       <use xlink:href="#m554abfcc3d" x="54" y="153.034381" style="fill: #262626; stroke: #262626; stroke-width: 1.875"/>
      </g>
     </g>
     <g id="text_8">
      <text style="fill: #262626; font: 16.5px 'sans-serif'; text-anchor: end" x="41.5" y="158.939576" transform="rotate(-0, 41.5, 158.939576)">10</text>
     </g>
    </g>
    <g id="ytick_3">
     <g id="line2d_9">
      <g>
       <use xlink:href="#m554abfcc3d" x="54" y="81.600773" style="fill: #262626; stroke: #262626; stroke-width: 1.875"/>
      </g>
     </g>
     <g id="text_9">
      <text style="fill: #262626; font: 16.5px 'sans-serif'; text-anchor: end" x="41.5" y="87.505968" transform="rotate(-0, 41.5, 87.505968)">20</text>
     </g>
    </g>
   </g>
   <g id="line2d_10">
    <path d="M 69.218182 224.467989 
L 71.672727 225.478271 
L 74.127273 227.233138 
L 76.581818 229.195956 
L 79.036364 231.166729 
L 81.490909 233.138019 
L 83.945455 235.001518 
L 86.4 236.633725 
L 88.854545 237.253804 
L 91.309091 238.402729 
L 93.763636 239.820501 
L 96.218182 240.425878 
L 98.672727 241.161551 
L 101.127273 241.781705 
L 103.581818 242.116364 
L 106.036364 241.886334 
L 108.490909 241.834285 
L 110.945455 241.459576 
L 113.4 240.818079 
L 115.854545 240.273426 
L 118.309091 239.656036 
L 120.763636 238.945039 
L 123.218182 238.086321 
L 125.672727 236.412165 
L 128.127273 235.078391 
L 130.581818 232.83923 
L 133.036364 233.443245 
L 135.490909 234.144293 
L 137.945455 234.237123 
L 140.4 233.715423 
L 142.854545 232.567295 
L 145.309091 230.877991 
L 147.763636 229.168963 
L 150.218182 227.45922 
L 152.672727 225.518801 
L 155.127273 223.553911 
L 157.581818 221.715416 
L 160.036364 220.311711 
L 162.490909 219.195878 
L 164.945455 217.941007 
L 167.4 216.377789 
L 169.854545 214.838118 
L 172.309091 213.26499 
L 174.763636 211.885045 
L 177.218182 210.434101 
L 179.672727 209.147435 
L 182.127273 207.800057 
L 184.581818 206.372871 
L 187.036364 205.062904 
L 189.490909 204.077868 
L 191.945455 202.803481 
L 194.4 201.229814 
L 196.854545 199.297489 
L 199.309091 197.199782 
L 201.763636 194.795429 
L 204.218182 191.906276 
L 206.672727 189.145154 
L 209.127273 188.068395 
L 211.581818 186.852463 
L 214.036364 185.846745 
L 216.490909 184.509518 
L 218.945455 182.912492 
L 221.4 180.75116 
L 223.854545 178.172105 
L 226.309091 175.677261 
L 228.763636 173.355909 
L 231.218182 171.159343 
L 233.672727 169.001106 
L 236.127273 166.392783 
L 238.581818 163.47591 
L 241.036364 160.615338 
L 243.490909 158.300076 
L 245.945455 156.108252 
L 248.4 153.439595 
L 250.854545 150.8484 
L 253.309091 148.732402 
L 255.763636 146.568374 
L 258.218182 144.257082 
L 260.672727 141.7983 
L 263.127273 139.103765 
L 265.581818 136.147018 
L 268.036364 133.675799 
L 270.490909 132.128923 
L 272.945455 131.019809 
L 275.4 129.724977 
L 277.854545 128.602119 
L 280.309091 126.856233 
L 282.763636 125.421875 
L 285.218182 123.487795 
L 287.672727 122.035335 
L 290.127273 120.741793 
L 292.581818 119.332494 
L 295.036364 117.597511 
L 297.490909 115.836383 
L 299.945455 114.308098 
L 302.4 112.721854 
L 304.854545 111.468381 
L 307.309091 109.504887 
L 309.763636 107.696384 
L 312.218182 106.345077 
L 314.672727 104.738005 
L 317.127273 102.676625 
L 319.581818 100.067998 
L 322.036364 97.310053 
L 324.490909 94.56471 
L 326.945455 91.763383 
L 329.4 88.886452 
L 331.854545 86.121377 
L 334.309091 83.47219 
L 336.763636 80.861525 
L 339.218182 78.576542 
L 341.672727 76.098945 
L 344.127273 73.507323 
L 346.581818 70.486306 
L 349.036364 67.743667 
L 351.490909 64.99242 
L 353.945455 62.651088 
L 356.4 60.644973 
L 358.854545 58.416072 
L 361.309091 56.260254 
L 363.763636 53.859429 
L 366.218182 51.525669 
L 368.672727 49.197275 
L 371.127273 46.913509 
L 373.581818 44.443636 
" clip-path="url(#p3a1c0588ea)" style="fill: none; stroke: #000000; stroke-width: 2.25; stroke-linecap: round"/>
   </g>
   <g id="patch_3">
    <path d="M 54 252 
L 54 34.56 
" style="fill: none; stroke: #262626; stroke-width: 1.875; stroke-linejoin: miter; stroke-linecap: square"/>
   </g>
   <g id="patch_4">
    <path d="M 54 252 
L 388.8 252 
" style="fill: none; stroke: #262626; stroke-width: 1.875; stroke-linejoin: miter; stroke-linecap: square"/>
   </g>
   <g id="text_10">
    <text style="fill: #262626; font: 18px 'sans-serif'; text-anchor: middle" x="221.4" y="28.56" transform="rotate(-0, 221.4, 28.56)">sum of rewards</text>
   </g>
  </g>
 </g>
 <defs>
  <clipPath id="p3a1c0588ea">
   <rect x="54" y="34.56" width="334.8" height="217.44"/>
  </clipPath>
 </defs>
</svg>
