<?xml version="1.0" encoding="utf-8" standalone="no"?>
<!DOCTYPE svg PUBLIC "-//W3C//DTD SVG 1.1//EN"
  "http://www.w3.org/Graphics/SVG/1.1/DTD/svg11.dtd">
<svg xmlns:xlink="http://www.w3.org/1999/xlink" width="460.8pt" height="345.6pt" viewBox="0 0 460.8 345.6" xmlns="http://www.w3.org/2000/svg" version="1.1">
 <metadata>
  <rdf:RDF xmlns:dc="http://purl.org/dc/elements/1.1/" xmlns:cc="http://creativecommons.org/ns#" xmlns:rdf="http://www.w3.org/1999/02/22-rdf-syntax-ns#">
   <cc:Work>
    <dc:type rdf:resource="http://purl.org/dc/dcmitype/StillImage"/>
    <dc:date>2022-09-02T23:16:44.389881</dc:date>
    <dc:format>image/svg+xml</dc:format>
    <dc:creator>
     <cc:Agent>
      <dc:title>Matplotlib v3.5.2, https://matplotlib.org/</dc:title>
     </cc:Agent>
    </dc:creator>
   </cc:Work>
  </rdf:RDF>
 </metadata>
 <defs>
  <style type="text/css">*{stroke-linejoin: round; stroke-linecap: butt}</style>
 </defs>
 <g id="figure_1">
  <g id="patch_1">
   <path d="M 0 345.6 
L 460.8 345.6 
L 460.8 0 
L 0 0 
z
" style="fill: #ffffff"/>
  </g>
  <g id="axes_1">
   <g id="patch_2">
    <path d="M 57.6 307.584 
L 414.72 307.584 
L 414.72 41.472 
L 57.6 41.472 
L 57.6 307.584 
z
" style="fill: none"/>
   </g>
   <g id="matplotlib.axis_1">
    <g id="xtick_1">
     <g id="line2d_1">
      <defs>
       <path id="mb10a4b9d46" d="M 0 0 
L 0 9 
" style="stroke: #262626; stroke-width: 1.875"/>
      </defs>
      <g>
       <use xlink:href="#mb10a4b9d46" x="73.832727" y="307.584" style="fill: #262626; stroke: #262626; stroke-width: 1.875"/>
      </g>
     </g>
     <g id="text_1">
      <text style="fill: #262626; font: 16.5px 'sans-serif'; text-anchor: middle" x="73.832727" y="331.894391" transform="rotate(-0, 73.832727, 331.894391)">0</text>
     </g>
    </g>
    <g id="xtick_2">
     <g id="line2d_2">
      <g>
       <use xlink:href="#mb10a4b9d46" x="164.823351" y="307.584" style="fill: #262626; stroke: #262626; stroke-width: 1.875"/>
      </g>
     </g>
     <g id="text_2">
      <text style="fill: #262626; font: 16.5px 'sans-serif'; text-anchor: middle" x="164.823351" y="331.894391" transform="rotate(-0, 164.823351, 331.894391)">500</text>
     </g>
    </g>
    <g id="xtick_3">
     <g id="line2d_3">
      <g>
       <use xlink:href="#mb10a4b9d46" x="255.813975" y="307.584" style="fill: #262626; stroke: #262626; stroke-width: 1.875"/>
      </g>
     </g>
     <g id="text_3">
      <text style="fill: #262626; font: 16.5px 'sans-serif'; text-anchor: middle" x="255.813975" y="331.894391" transform="rotate(-0, 255.813975, 331.894391)">1000</text>
     </g>
    </g>
    <g id="xtick_4">
     <g id="line2d_4">
      <g>
       <use xlink:href="#mb10a4b9d46" x="346.804598" y="307.584" style="fill: #262626; stroke: #262626; stroke-width: 1.875"/>
      </g>
     </g>
     <g id="text_4">
      <text style="fill: #262626; font: 16.5px 'sans-serif'; text-anchor: middle" x="346.804598" y="331.894391" transform="rotate(-0, 346.804598, 331.894391)">1500</text>
     </g>
    </g>
    <g id="text_5">
     <text style="fill: #262626; font: 18px 'sans-serif'; text-anchor: middle" x="236.16" y="352.277203" transform="rotate(-0, 236.16, 352.277203)">Time Steps</text>
    </g>
   </g>
   <g id="matplotlib.axis_2">
    <g id="ytick_1">
     <g id="line2d_5">
      <defs>
       <path id="ma3804d9eef" d="M 0 0 
L -9 0 
" style="stroke: #262626; stroke-width: 1.875"/>
      </defs>
      <g>
       <use xlink:href="#ma3804d9eef" x="57.6" y="277.182607" style="fill: #262626; stroke: #262626; stroke-width: 1.875"/>
      </g>
     </g>
     <g id="text_6">
      <text style="fill: #262626; font: 16.5px 'sans-serif'; text-anchor: end" x="45.1" y="283.087802" transform="rotate(-0, 45.1, 283.087802)">−0.2</text>
     </g>
    </g>
    <g id="ytick_2">
     <g id="line2d_6">
      <g>
       <use xlink:href="#ma3804d9eef" x="57.6" y="211.810791" style="fill: #262626; stroke: #262626; stroke-width: 1.875"/>
      </g>
     </g>
     <g id="text_7">
      <text style="fill: #262626; font: 16.5px 'sans-serif'; text-anchor: end" x="45.1" y="217.715987" transform="rotate(-0, 45.1, 217.715987)">0.0</text>
     </g>
    </g>
    <g id="ytick_3">
     <g id="line2d_7">
      <g>
       <use xlink:href="#ma3804d9eef" x="57.6" y="146.438976" style="fill: #262626; stroke: #262626; stroke-width: 1.875"/>
      </g>
     </g>
     <g id="text_8">
      <text style="fill: #262626; font: 16.5px 'sans-serif'; text-anchor: end" x="45.1" y="152.344171" transform="rotate(-0, 45.1, 152.344171)">0.2</text>
     </g>
    </g>
    <g id="ytick_4">
     <g id="line2d_8">
      <g>
       <use xlink:href="#ma3804d9eef" x="57.6" y="81.067161" style="fill: #262626; stroke: #262626; stroke-width: 1.875"/>
      </g>
     </g>
     <g id="text_9">
      <text style="fill: #262626; font: 16.5px 'sans-serif'; text-anchor: end" x="45.1" y="86.972356" transform="rotate(-0, 45.1, 86.972356)">0.4</text>
     </g>
    </g>
    <g id="text_10">
     <text style="fill: #262626; font: 18px 'sans-serif'; text-anchor: middle" x="4.950469" y="174.528" transform="rotate(-90, 4.950469, 174.528)">Reward points</text>
    </g>
   </g>
   <g id="line2d_9">
    <path d="M 73.832727 211.810791 
L 74.014709 295.488 
L 74.19669 247.741891 
L 74.560652 222.998508 
L 74.742634 265.707336 
L 74.924615 268.321535 
L 75.106596 252.850573 
L 75.470558 242.718137 
L 75.65254 247.183686 
L 75.834521 242.356684 
L 76.744427 177.502923 
L 76.926408 211.368798 
L 77.10839 221.186207 
L 77.472352 174.65778 
L 77.654333 164.082155 
L 77.836315 170.801796 
L 78.018296 172.09954 
L 78.200277 162.159557 
L 78.382258 116.101326 
L 78.56424 123.196007 
L 78.746221 228.458881 
L 78.928202 210.958578 
L 79.110183 213.556556 
L 79.292165 213.881291 
L 79.474146 190.755738 
L 79.656127 181.86598 
L 79.838108 179.011872 
L 80.02009 187.251102 
L 80.202071 177.80782 
L 80.384052 188.724445 
L 80.929996 123.372627 
L 81.293958 87.326756 
L 81.47594 99.094252 
L 81.657921 155.459399 
L 81.839902 160.460075 
L 82.021883 186.172819 
L 82.385846 133.215498 
L 82.567827 153.460351 
L 82.749808 187.46049 
L 82.93179 180.629023 
L 83.113771 183.216988 
L 83.295752 209.891456 
L 83.477733 159.763633 
L 83.659715 150.246933 
L 84.023677 123.539276 
L 84.205658 226.183453 
L 84.933583 192.899609 
L 85.115565 171.097677 
L 85.297546 180.061527 
L 85.479527 176.372748 
L 85.661508 193.510589 
L 85.84349 184.348954 
L 86.207452 195.181319 
L 86.753396 125.505935 
L 86.935377 152.690355 
L 87.481321 117.737741 
L 87.663302 133.850113 
L 87.845283 107.928483 
L 88.027265 165.673898 
L 88.209246 176.265211 
L 88.391227 201.255713 
L 88.573208 198.603204 
L 88.937171 148.298359 
L 89.301133 193.222158 
L 89.483115 202.845208 
L 89.665096 178.055482 
L 89.847077 171.73691 
L 90.21104 170.284539 
L 90.393021 168.612529 
L 90.575002 157.881627 
L 90.756983 165.727461 
L 90.938965 163.784142 
L 91.120946 224.804766 
L 91.66689 139.426217 
L 92.030852 196.48048 
L 92.394815 162.905903 
L 92.576796 192.462947 
L 92.758777 201.008398 
L 92.940758 188.728348 
L 93.12274 192.851546 
L 93.304721 181.324979 
L 93.486702 195.647824 
L 93.668683 177.56783 
L 93.850664 193.127849 
L 94.032646 174.481524 
L 94.214627 189.509755 
L 94.396608 159.480737 
L 94.578589 160.074397 
L 94.760571 155.960713 
L 94.942552 147.659522 
L 95.124533 145.729295 
L 95.306514 145.482435 
L 95.670477 176.718876 
L 95.852458 153.570076 
L 96.034439 151.556935 
L 96.216421 103.674766 
L 96.398402 107.476999 
L 96.580383 219.5329 
L 96.944346 197.74889 
L 97.126327 181.345687 
L 97.308308 195.705605 
L 97.672271 159.973919 
L 97.854252 171.18235 
L 98.036233 165.424528 
L 98.218214 165.866953 
L 98.400196 174.999896 
L 98.764158 132.273011 
L 98.946139 123.022396 
L 99.128121 148.204788 
L 99.310102 151.569863 
L 99.492083 135.406663 
L 99.856046 146.158446 
L 100.038027 136.728422 
L 100.583971 184.288033 
L 100.765952 158.100852 
L 100.947933 171.730077 
L 101.129914 161.102137 
L 101.311896 164.742104 
L 101.493877 188.679629 
L 101.675858 167.89454 
L 101.857839 201.388266 
L 102.221802 111.25426 
L 102.403783 178.149414 
L 102.585764 199.358263 
L 102.767746 178.591253 
L 102.949727 208.625234 
L 103.131708 200.196137 
L 103.495671 156.195146 
L 103.677652 144.101427 
L 103.859633 162.320134 
L 104.041614 166.268497 
L 104.223596 180.349308 
L 104.405577 153.49082 
L 104.587558 145.227167 
L 104.769539 148.043198 
L 104.951521 166.505333 
L 105.133502 172.051171 
L 105.315483 148.418448 
L 105.497464 210.26764 
L 105.679446 221.4517 
L 106.043408 204.791616 
L 106.225389 179.071605 
L 106.407371 182.950779 
L 106.589352 197.79418 
L 106.771333 198.721013 
L 106.953314 176.506008 
L 107.317277 201.673093 
L 107.499258 174.438212 
L 107.681239 170.502979 
L 107.863221 169.057798 
L 108.409164 115.408171 
L 108.591146 131.481242 
L 108.773127 126.584893 
L 108.955108 131.822183 
L 109.137089 114.954759 
L 109.319071 131.978444 
L 109.501052 124.386201 
L 110.046996 184.004042 
L 110.228977 200.859963 
L 110.956902 153.183285 
L 111.138883 169.449148 
L 111.502845 175.60718 
L 111.866808 131.033573 
L 112.048789 134.435618 
L 112.23077 126.111869 
L 112.412752 160.238207 
L 112.776714 121.353504 
L 112.958695 147.737009 
L 113.140677 152.547351 
L 113.322658 144.384999 
L 113.504639 158.891622 
L 113.68662 158.964563 
L 113.868602 149.512219 
L 114.050583 152.908084 
L 114.414545 203.182842 
L 114.778508 118.654963 
L 114.960489 178.21883 
L 115.14247 184.562793 
L 115.324452 173.87754 
L 115.688414 138.466018 
L 115.870395 161.274587 
L 116.234358 145.389814 
L 116.416339 165.932663 
L 116.59832 149.566311 
L 116.962283 161.220995 
L 117.326245 216.775874 
L 117.690208 158.331475 
L 117.872189 188.286826 
L 118.418133 186.547699 
L 118.600114 179.069642 
L 118.782095 189.431087 
L 119.328039 118.337109 
L 119.51002 127.133546 
L 119.692002 144.866578 
L 119.873983 175.088154 
L 120.055964 182.686536 
L 120.237945 170.817948 
L 120.419927 146.512789 
L 120.601908 140.993995 
L 120.783889 163.626461 
L 120.96587 160.792971 
L 121.147852 167.636119 
L 121.329833 146.781156 
L 121.511814 156.056345 
L 121.693795 172.777744 
L 121.875777 162.842857 
L 122.057758 205.366066 
L 122.603702 138.661755 
L 122.785683 161.367045 
L 122.967664 141.17137 
L 123.149645 144.206025 
L 123.513608 194.065403 
L 123.87757 133.117872 
L 124.059552 203.690208 
L 124.241533 216.892703 
L 124.423514 206.960751 
L 124.605495 208.853617 
L 125.151439 175.131665 
L 125.33342 178.831921 
L 125.515402 172.532902 
L 125.697383 196.038625 
L 125.879364 192.867776 
L 126.061345 179.932249 
L 126.243327 176.096983 
L 126.425308 197.382928 
L 126.971252 135.073565 
L 127.335214 109.564694 
L 127.517195 118.483335 
L 127.699177 143.423096 
L 127.881158 113.747896 
L 128.063139 128.981367 
L 128.24512 107.35336 
L 128.427102 148.307993 
L 128.791064 162.267249 
L 128.973045 155.947768 
L 129.155026 138.953415 
L 129.337008 158.779991 
L 129.518989 155.080673 
L 129.70097 167.259049 
L 129.882951 157.668714 
L 130.246914 181.934965 
L 130.792858 143.056218 
L 131.15682 225.759678 
L 131.338801 204.793812 
L 131.702764 216.995047 
L 131.884745 212.272805 
L 132.430689 173.032762 
L 132.61267 172.440221 
L 132.794651 187.840034 
L 132.976633 180.684466 
L 133.158614 195.498443 
L 133.886539 103.242069 
L 134.06852 129.84799 
L 134.250501 110.923753 
L 134.432483 110.110056 
L 134.614464 94.785466 
L 135.160408 165.531459 
L 135.342389 159.621316 
L 136.070314 208.174251 
L 136.434276 200.913526 
L 136.798239 169.49845 
L 136.98022 169.673404 
L 137.162201 195.790022 
L 137.526164 173.738966 
L 137.708145 179.831835 
L 137.890126 195.2078 
L 138.254089 148.105491 
L 138.800033 101.370102 
L 138.982014 136.749779 
L 139.163995 110.409878 
L 139.345976 125.622678 
L 139.527958 116.020066 
L 139.709939 197.774549 
L 139.89192 211.501432 
L 140.073901 129.044427 
L 140.437864 118.563752 
L 140.619845 122.31895 
L 140.801826 134.570787 
L 140.983808 156.821978 
L 141.165789 143.540191 
L 141.34777 138.459 
L 141.529751 166.279978 
L 141.711733 126.182638 
L 142.075695 192.060842 
L 142.257676 183.277379 
L 142.439658 164.032307 
L 142.621639 185.354792 
L 142.80362 182.252442 
L 142.985601 164.392652 
L 143.167583 168.039919 
L 143.349564 164.418569 
L 143.531545 163.704709 
L 143.895508 165.958569 
L 144.077489 154.575165 
L 144.25947 127.326157 
L 144.441451 161.030187 
L 144.623433 163.083103 
L 144.805414 151.292115 
L 144.987395 162.23864 
L 145.169376 151.380148 
L 145.351358 148.229953 
L 145.533339 148.515795 
L 145.71532 168.726368 
L 145.897301 137.55409 
L 146.079283 194.908425 
L 146.261264 211.32557 
L 146.443245 205.12319 
L 146.625226 173.655274 
L 146.807208 163.050511 
L 146.989189 177.331819 
L 147.17117 177.002297 
L 147.353151 163.806801 
L 147.535132 173.403554 
L 147.899095 127.033542 
L 148.081076 150.062243 
L 148.263057 130.096606 
L 148.445039 149.377136 
L 148.62702 116.565707 
L 148.809001 142.601331 
L 148.990982 127.987196 
L 149.354945 163.961948 
L 149.536926 205.705715 
L 149.718907 202.199087 
L 150.08287 170.62855 
L 150.264851 171.898228 
L 150.446832 167.686171 
L 150.628814 178.524822 
L 150.810795 172.17264 
L 150.992776 176.283594 
L 151.174757 186.620706 
L 151.902682 110.173318 
L 152.084664 139.812909 
L 152.266645 118.912345 
L 152.448626 131.983569 
L 152.630607 102.46005 
L 152.99457 148.231828 
L 153.176551 150.032685 
L 153.540514 156.813084 
L 153.722495 145.745903 
L 153.904476 150.667674 
L 154.086457 204.567316 
L 154.268439 194.154421 
L 154.45042 193.339813 
L 154.632401 179.354797 
L 154.814382 180.281174 
L 154.996364 150.464958 
L 155.178345 142.515102 
L 155.542307 205.258216 
L 155.724289 177.617816 
L 155.90627 174.329072 
L 156.270232 205.960139 
L 156.634195 115.844381 
L 156.816176 121.494719 
L 156.998157 156.707595 
L 157.180139 227.867601 
L 157.36212 223.434344 
L 157.544101 183.098186 
L 157.908064 201.227467 
L 158.272026 178.100496 
L 158.635989 171.790087 
L 158.81797 151.529262 
L 159.181932 191.104706 
L 159.727876 121.245014 
L 159.909857 110.103323 
L 160.091839 139.394378 
L 160.27382 112.312528 
L 160.455801 168.022383 
L 160.637782 164.731557 
L 160.819764 151.821962 
L 161.001745 153.325022 
L 161.183726 150.879254 
L 161.365707 158.715194 
L 161.547689 157.441809 
L 161.911651 178.589258 
L 162.093632 194.882163 
L 162.275614 199.426653 
L 162.457595 171.63505 
L 162.639576 182.828549 
L 163.003539 137.970075 
L 163.18552 139.97341 
L 163.367501 218.6652 
L 163.549482 205.260651 
L 163.731464 207.30028 
L 163.913445 198.323186 
L 164.277407 162.102467 
L 164.459389 159.409926 
L 164.64137 180.555603 
L 164.823351 168.944216 
L 165.005332 171.529696 
L 165.187313 187.358589 
L 165.551276 149.09002 
L 165.733257 153.031861 
L 166.09722 117.088248 
L 166.279201 139.71533 
L 166.461182 119.349752 
L 166.643163 142.506096 
L 166.825145 110.804429 
L 167.007126 165.130738 
L 167.189107 140.135294 
L 167.371088 134.332837 
L 167.55307 138.06156 
L 167.735051 190.545029 
L 167.917032 181.445176 
L 168.099013 181.338021 
L 168.280995 153.414012 
L 168.462976 174.552421 
L 168.644957 161.814668 
L 168.826938 189.304997 
L 169.00892 199.216421 
L 169.190901 188.11731 
L 169.372882 201.49047 
L 169.554863 180.398147 
L 169.736845 180.404379 
L 170.100807 149.371917 
L 170.282788 153.302387 
L 170.646751 125.195912 
L 170.828732 129.592306 
L 171.010713 203.790438 
L 171.374676 184.935696 
L 171.556657 186.083334 
L 171.92062 155.149163 
L 172.102601 164.590333 
L 172.284582 158.039902 
L 172.466563 155.749089 
L 172.648545 146.907405 
L 172.830526 159.299175 
L 173.012507 131.64344 
L 173.194488 156.663862 
L 173.37647 134.372563 
L 173.740432 170.019038 
L 173.922413 166.548399 
L 174.104395 195.024425 
L 174.286376 135.678849 
L 174.468357 117.071052 
L 174.83232 210.318552 
L 175.014301 210.050796 
L 175.560245 158.526574 
L 175.742226 175.219277 
L 175.924207 167.201047 
L 176.106188 173.810901 
L 176.28817 190.326039 
L 176.834113 119.024753 
L 177.380057 177.666551 
L 177.562038 158.064999 
L 177.74402 167.332165 
L 177.926001 154.256923 
L 178.289963 162.835667 
L 178.471945 200.374153 
L 178.653926 164.968289 
L 178.835907 198.409882 
L 179.017888 202.516479 
L 179.19987 203.134965 
L 179.927795 107.479949 
L 180.109776 207.392499 
L 180.291757 229.891757 
L 180.65572 198.596848 
L 181.019682 181.167769 
L 181.201663 180.712488 
L 181.383645 168.65796 
L 181.565626 185.23822 
L 181.747607 174.716993 
L 181.929588 191.534783 
L 182.657513 109.871166 
L 182.839494 141.400422 
L 183.021476 144.83505 
L 183.203457 124.497988 
L 183.385438 129.465159 
L 183.567419 193.524274 
L 183.749401 167.357129 
L 183.931382 165.311821 
L 184.113363 143.850988 
L 184.295344 159.647208 
L 184.477326 198.610594 
L 184.659307 165.898925 
L 184.841288 166.337396 
L 185.023269 189.262822 
L 185.387232 140.327592 
L 185.569213 141.585478 
L 185.751194 117.068491 
L 185.933176 123.572674 
L 186.115157 193.70393 
L 186.479119 209.808149 
L 186.661101 192.839123 
L 186.843082 161.124103 
L 187.025063 192.518067 
L 187.207044 174.299435 
L 187.389026 169.060874 
L 187.571007 158.23873 
L 187.752988 184.289598 
L 188.116951 140.283336 
L 188.480913 172.641552 
L 188.662894 138.303761 
L 188.844876 145.102046 
L 189.026857 157.368349 
L 189.208838 186.937074 
L 189.390819 191.294566 
L 189.572801 224.706383 
L 189.754782 191.372178 
L 189.936763 191.349922 
L 190.118744 206.747836 
L 190.300726 181.165099 
L 190.482707 194.542104 
L 190.664688 195.679946 
L 190.846669 202.378175 
L 191.028651 201.045208 
L 191.210632 172.091748 
L 191.392613 194.882105 
L 191.756576 140.946181 
L 192.120538 167.004896 
L 192.302519 168.773272 
L 192.484501 171.735039 
L 192.666482 168.668278 
L 192.848463 174.088017 
L 193.030444 197.809597 
L 193.212426 200.31055 
L 193.576388 166.089837 
L 193.940351 129.61959 
L 194.122332 153.514768 
L 194.304313 216.424604 
L 194.486294 221.459813 
L 194.668276 220.150679 
L 194.850257 227.369669 
L 195.032238 186.425242 
L 195.214219 199.828999 
L 195.760163 169.792112 
L 195.942144 169.323611 
L 196.306107 144.462491 
L 196.488088 187.267953 
L 196.670069 169.773064 
L 196.852051 183.322989 
L 197.034032 153.062144 
L 197.216013 143.709381 
L 197.397994 121.469009 
L 197.579976 162.88703 
L 197.943938 187.917454 
L 198.125919 172.758486 
L 198.307901 177.62363 
L 198.489882 177.908156 
L 198.671863 174.420162 
L 199.035826 153.781693 
L 199.217807 139.803055 
L 199.399788 140.827928 
L 199.581769 169.184127 
L 199.763751 155.078768 
L 199.945732 212.751885 
L 200.127713 186.482988 
L 200.309694 194.183981 
L 200.855638 139.845824 
L 201.037619 154.88939 
L 201.2196 145.059245 
L 201.401582 171.773815 
L 201.583563 157.942519 
L 202.129507 227.088413 
L 202.311488 225.52649 
L 202.493469 186.049619 
L 202.67545 174.117846 
L 202.857432 177.271044 
L 203.039413 170.564022 
L 203.221394 178.846799 
L 203.403375 181.827347 
L 203.585357 195.440519 
L 203.767338 172.271252 
L 203.949319 172.592441 
L 204.1313 158.182833 
L 204.313282 159.787953 
L 204.495263 151.687852 
L 204.677244 172.281397 
L 205.041207 129.739003 
L 205.223188 130.881071 
L 205.405169 135.573212 
L 205.769132 192.048786 
L 205.951113 191.07776 
L 206.133094 188.178888 
L 206.315075 187.87468 
L 206.497057 162.815207 
L 206.679038 165.174324 
L 206.861019 180.812864 
L 207.043 180.600199 
L 207.224982 162.318164 
L 207.406963 162.363256 
L 207.588944 178.5028 
L 207.952907 127.442908 
L 208.134888 140.050287 
L 208.316869 125.120419 
L 208.49885 156.843209 
L 208.680832 130.615333 
L 208.862813 132.588056 
L 209.226775 153.330759 
L 209.408757 191.716817 
L 209.590738 186.395228 
L 209.772719 168.92248 
L 209.9547 136.736015 
L 210.136682 127.615211 
L 210.318663 153.980721 
L 210.500644 152.035961 
L 210.682625 164.365914 
L 211.046588 203.7866 
L 211.592532 126.929946 
L 211.774513 223.950932 
L 211.956494 220.00701 
L 212.138475 220.06475 
L 212.320457 221.042047 
L 212.684419 198.4326 
L 212.8664 180.579186 
L 213.048382 181.544297 
L 213.230363 181.870792 
L 213.412344 188.429886 
L 213.594325 180.60007 
L 213.958288 205.457809 
L 214.504232 133.686047 
L 214.868194 96.653785 
L 215.050175 126.321287 
L 215.232157 107.453568 
L 215.414138 116.268355 
L 215.596119 112.131437 
L 215.960082 172.710069 
L 216.324044 144.322869 
L 216.506025 139.947383 
L 216.869988 216.806391 
L 217.051969 181.07112 
L 217.415932 145.39956 
L 217.597913 122.003376 
L 217.779894 222.902543 
L 217.961875 216.002121 
L 218.143857 196.470212 
L 218.325838 192.873296 
L 218.507819 185.349115 
L 218.6898 172.068057 
L 218.871781 175.46722 
L 219.053763 185.299839 
L 219.235744 170.125201 
L 219.417725 176.823649 
L 219.599706 162.141247 
L 219.781688 182.558766 
L 220.14565 137.930364 
L 220.327631 125.545006 
L 220.509613 156.411665 
L 220.691594 131.794106 
L 220.873575 142.243936 
L 221.055556 137.922737 
L 221.237538 156.337497 
L 221.419519 218.710757 
L 221.965463 173.659004 
L 222.511406 148.773226 
L 222.693388 137.219751 
L 222.875369 117.030767 
L 223.239331 189.91266 
L 223.785275 167.58615 
L 223.967256 175.034787 
L 224.149238 158.306763 
L 224.331219 169.625648 
L 224.5132 169.577771 
L 224.695181 168.560084 
L 224.877163 175.514876 
L 225.059144 166.841474 
L 225.241125 177.117031 
L 225.423106 159.191943 
L 225.605088 168.398121 
L 225.96905 140.413874 
L 226.151031 158.333724 
L 226.514994 109.126499 
L 226.696975 89.859208 
L 226.878956 131.7364 
L 227.060938 244.596064 
L 227.242919 177.606429 
L 227.4249 190.814955 
L 227.606881 187.672119 
L 227.970844 133.765962 
L 228.152825 114.339357 
L 228.334806 146.304104 
L 228.516788 158.472141 
L 228.698769 188.64024 
L 228.88075 170.862376 
L 229.062731 107.53779 
L 229.244713 115.51253 
L 229.426694 161.897697 
L 229.608675 153.419315 
L 229.790656 127.644116 
L 229.972638 156.939641 
L 230.154619 134.343125 
L 230.3366 135.940322 
L 230.518581 146.617032 
L 230.882544 140.233373 
L 231.610469 60.647843 
L 231.79245 53.568 
L 231.974431 141.662179 
L 232.156413 165.34775 
L 232.338394 156.978814 
L 232.520375 178.959814 
L 232.702356 178.4748 
L 232.884338 202.467944 
L 233.066319 198.765241 
L 233.2483 152.06873 
L 233.430281 151.492845 
L 233.612263 152.097857 
L 233.794244 140.635409 
L 233.976225 145.726492 
L 234.158206 163.49085 
L 234.340188 141.936809 
L 234.522169 162.650278 
L 234.70415 139.359398 
L 235.068113 121.692378 
L 235.250094 133.433079 
L 235.432075 125.306981 
L 235.614056 170.702597 
L 235.796038 169.550677 
L 235.978019 159.63452 
L 236.16 162.231076 
L 236.341981 158.879711 
L 236.523962 150.719255 
L 236.705944 156.558238 
L 236.887925 138.348629 
L 237.069906 166.906117 
L 237.251887 135.951285 
L 237.433869 135.563729 
L 237.61585 155.211474 
L 237.797831 135.874362 
L 238.161794 189.778662 
L 238.343775 208.236274 
L 238.525756 194.057006 
L 238.707737 191.551936 
L 238.889719 160.29975 
L 239.0717 163.2978 
L 239.253681 179.084216 
L 239.435662 157.346492 
L 239.617644 175.886308 
L 239.799625 176.839493 
L 239.981606 176.345494 
L 240.163587 166.195375 
L 240.345569 185.426717 
L 240.891512 121.393007 
L 241.073494 146.329888 
L 241.255475 129.379071 
L 241.437456 140.102243 
L 241.619437 118.979846 
L 242.165381 175.465461 
L 242.347362 157.633938 
L 242.529344 152.824455 
L 242.711325 174.329901 
L 242.893306 173.793259 
L 243.075287 150.156364 
L 243.257269 150.487911 
L 243.43925 144.076733 
L 243.621231 164.621209 
L 243.803212 141.642195 
L 243.985194 146.461603 
L 244.167175 146.909614 
L 244.531137 197.15089 
L 244.713119 195.470804 
L 244.8951 170.220984 
L 245.259062 154.154913 
L 245.441044 168.691064 
L 245.623025 142.296603 
L 245.805006 171.557911 
L 245.986987 117.744378 
L 246.168969 134.963641 
L 246.35095 129.400964 
L 246.532931 160.809993 
L 246.714912 146.563725 
L 247.078875 196.374068 
L 247.260856 180.507602 
L 247.442837 176.151796 
L 247.624819 159.876217 
L 247.8068 120.477049 
L 248.352744 225.803133 
L 248.534725 219.251191 
L 248.716706 183.141641 
L 248.898687 178.128584 
L 249.626612 132.923245 
L 249.808594 158.965891 
L 249.990575 143.962924 
L 250.172556 168.880928 
L 250.354537 135.766283 
L 250.7185 200.07644 
L 250.900481 200.184958 
L 251.082462 222.371051 
L 251.264444 180.23586 
L 251.810387 155.707893 
L 251.992369 158.930015 
L 252.17435 183.84451 
L 252.356331 165.611367 
L 252.538312 176.702046 
L 252.720294 168.49827 
L 252.902275 145.162105 
L 253.084256 150.17148 
L 253.266237 165.75211 
L 253.448219 199.965191 
L 253.6302 189.932185 
L 253.994162 186.105164 
L 254.176143 163.404135 
L 254.358125 159.754025 
L 254.540106 160.363631 
L 254.722087 171.54312 
L 254.904068 159.280496 
L 255.08605 172.898624 
L 255.268031 166.750281 
L 255.450012 176.476626 
L 255.631993 153.993584 
L 255.995956 188.600587 
L 256.177937 211.357104 
L 256.5419 155.400801 
L 256.723881 155.960769 
L 256.905862 134.844511 
L 257.087843 150.618121 
L 257.269825 151.8772 
L 257.451806 137.389357 
L 257.633787 205.468074 
L 257.815768 174.72777 
L 257.99775 218.310843 
L 258.179731 220.856516 
L 258.543693 204.959624 
L 258.725675 175.885496 
L 258.907656 212.623464 
L 259.271618 154.231594 
L 259.4536 134.870171 
L 259.635581 130.095265 
L 259.817562 158.871953 
L 259.999543 218.961236 
L 260.181525 208.322843 
L 260.545487 172.747789 
L 260.727468 179.925601 
L 260.90945 193.419168 
L 261.091431 177.85701 
L 261.455393 200.194132 
L 262.001337 136.49908 
L 262.183318 126.690149 
L 262.547281 179.114265 
L 262.911243 217.109436 
L 263.093225 180.694218 
L 263.457187 162.489415 
L 263.639168 160.685187 
L 263.82115 188.833863 
L 264.185112 166.200075 
L 264.367093 181.506089 
L 264.913037 118.772533 
L 265.095018 141.094617 
L 265.277 119.134473 
L 265.458981 155.280576 
L 265.822943 127.80937 
L 266.186906 170.300143 
L 266.368887 153.298087 
L 266.550868 167.494584 
L 266.73285 169.929183 
L 266.914831 152.67399 
L 267.096812 192.991039 
L 267.278793 172.11027 
L 267.642756 169.226884 
L 268.006718 151.805075 
L 268.1887 116.928014 
L 268.370681 144.97543 
L 268.552662 134.889032 
L 268.734643 213.192274 
L 268.916625 200.073295 
L 269.098606 216.26135 
L 269.64455 188.582311 
L 270.008512 159.012983 
L 270.190493 173.447731 
L 270.372475 163.545008 
L 270.554456 178.047503 
L 270.918418 140.251788 
L 271.1004 145.304966 
L 271.282381 120.998102 
L 271.464362 130.883915 
L 271.646343 117.449234 
L 271.828325 151.379091 
L 272.192287 117.98322 
L 272.374268 142.099591 
L 272.556249 141.865791 
L 272.738231 140.104361 
L 272.920212 157.539849 
L 273.284174 142.094019 
L 273.466156 173.76006 
L 273.648137 174.776322 
L 273.830118 169.084096 
L 274.012099 159.448344 
L 274.194081 155.915752 
L 274.376062 211.987235 
L 274.558043 228.862711 
L 274.740024 208.398033 
L 274.922006 203.104777 
L 275.103987 211.992735 
L 275.285968 188.142783 
L 275.467949 182.615663 
L 275.649931 183.218075 
L 275.831912 190.410212 
L 276.013893 181.790645 
L 276.195874 197.898425 
L 276.923799 111.489206 
L 277.105781 106.163032 
L 277.287762 158.367112 
L 277.469743 177.797819 
L 277.651724 150.434983 
L 278.015687 156.25611 
L 278.197668 143.025231 
L 278.379649 156.575694 
L 278.561631 142.659709 
L 278.743612 197.138785 
L 278.925593 195.983943 
L 279.289556 137.380082 
L 279.471537 151.912636 
L 279.653518 223.92463 
L 279.835499 208.793427 
L 280.017481 225.743997 
L 280.199462 215.140255 
L 280.381443 225.076705 
L 280.563424 217.171024 
L 280.927387 188.63954 
L 281.109368 180.638458 
L 281.291349 180.883895 
L 281.473331 180.186557 
L 281.655312 206.983124 
L 281.837293 191.692432 
L 282.019274 207.149015 
L 282.565218 135.503594 
L 282.747199 115.924458 
L 282.929181 140.701308 
L 283.293143 106.502177 
L 283.475124 120.293739 
L 283.657106 103.297051 
L 283.839087 123.935325 
L 284.021068 179.660419 
L 284.203049 152.808902 
L 284.385031 157.553037 
L 284.748993 220.804327 
L 284.930974 213.657069 
L 285.112956 197.747758 
L 285.294937 211.026161 
L 285.476918 175.18879 
L 285.658899 184.694127 
L 285.840881 157.496266 
L 286.386824 206.14247 
L 286.932768 138.467315 
L 287.114749 124.602667 
L 287.478712 225.178534 
L 287.660693 228.26676 
L 288.024656 202.976414 
L 288.206637 184.361176 
L 288.388618 181.272506 
L 288.570599 202.152752 
L 288.752581 205.620594 
L 288.934562 184.38471 
L 289.116543 194.383532 
L 289.298524 211.620355 
L 289.844468 139.64598 
L 290.026449 115.855871 
L 290.20843 145.762539 
L 290.390412 127.31155 
L 290.572393 132.179899 
L 290.754374 110.839634 
L 290.936355 143.387513 
L 291.118337 214.253997 
L 291.482299 122.160531 
L 291.66428 168.423554 
L 291.846262 129.524064 
L 292.028243 182.324234 
L 292.210224 161.676558 
L 292.392205 197.091833 
L 292.574187 205.30946 
L 292.756168 196.663697 
L 292.938149 230.141765 
L 293.12013 172.413055 
L 293.302112 207.431389 
L 293.484093 213.348007 
L 293.848055 147.120205 
L 294.030037 147.482261 
L 294.212018 122.705447 
L 294.393999 124.833237 
L 294.57598 201.629709 
L 294.757962 205.170574 
L 294.939943 204.322195 
L 295.303905 164.97588 
L 295.485887 165.11623 
L 295.667868 177.104947 
L 295.849849 163.42966 
L 296.03183 173.36174 
L 296.213812 162.804561 
L 296.395793 196.008949 
L 296.577774 197.633362 
L 296.759755 164.911252 
L 296.941737 164.101433 
L 297.123718 167.220127 
L 297.48768 163.688315 
L 297.669662 173.11742 
L 297.851643 174.251892 
L 298.033624 119.100425 
L 298.215605 150.183342 
L 298.397587 133.661247 
L 298.579568 131.474101 
L 298.761549 154.512325 
L 298.94353 153.452708 
L 299.125512 161.820243 
L 299.307493 162.152476 
L 299.489474 181.910842 
L 299.671455 182.573239 
L 299.853437 192.157395 
L 300.035418 188.88757 
L 300.217399 173.690206 
L 300.39938 178.540305 
L 300.581362 199.24941 
L 300.763343 145.158943 
L 300.945324 125.554366 
L 301.127305 197.887818 
L 301.309287 219.53052 
L 301.491268 197.114267 
L 301.673249 192.666147 
L 302.037212 173.760745 
L 302.219193 181.538479 
L 302.401174 174.584347 
L 302.583155 181.56557 
L 302.765137 195.466487 
L 303.129099 156.233118 
L 303.31108 161.190346 
L 303.675043 122.182208 
L 303.857024 130.86719 
L 304.039005 159.357772 
L 304.220987 156.02782 
L 304.584949 144.069318 
L 304.76693 157.48021 
L 304.948912 151.379819 
L 305.130893 127.779683 
L 305.494855 197.11299 
L 305.676837 206.543586 
L 306.040799 133.148154 
L 306.22278 144.529283 
L 306.404762 229.221205 
L 306.586743 228.482527 
L 306.950705 207.242585 
L 307.132687 197.407327 
L 307.314668 177.629557 
L 307.496649 178.777228 
L 307.67863 169.534197 
L 307.860611 185.708623 
L 308.042593 178.33856 
L 308.406555 196.344837 
L 308.952499 124.334097 
L 309.13448 151.943109 
L 309.498443 127.585063 
L 309.680424 115.042479 
L 309.862405 134.686962 
L 310.044386 107.63438 
L 310.226368 152.38753 
L 310.59033 178.122308 
L 310.772311 204.797348 
L 310.954293 194.926929 
L 311.318255 152.151287 
L 311.682218 179.391752 
L 311.864199 148.897953 
L 312.04618 195.524157 
L 312.228161 178.231051 
L 312.410143 207.694509 
L 312.774105 117.671014 
L 312.956086 181.583476 
L 313.320049 212.63025 
L 313.684011 164.195093 
L 314.047974 148.652321 
L 314.229955 170.542939 
L 314.411936 158.833156 
L 314.593918 175.397923 
L 314.775899 135.02022 
L 315.139861 158.364234 
L 315.685805 215.93266 
L 315.867786 197.281189 
L 316.049768 197.142986 
L 316.231749 178.480686 
L 316.41373 177.476808 
L 316.595711 192.541828 
L 316.777693 192.11398 
L 316.959674 176.117224 
L 317.141655 178.725527 
L 317.323636 197.678078 
L 317.86958 128.552662 
L 318.051561 155.486351 
L 318.233543 138.51323 
L 318.415524 140.515682 
L 318.597505 121.180718 
L 318.961468 179.067786 
L 319.143449 169.279876 
L 319.32543 144.800961 
L 319.507411 163.856373 
L 319.689393 161.62033 
L 319.871374 150.110104 
L 320.235336 161.192903 
L 320.417318 147.142637 
L 320.599299 148.664974 
L 320.963261 177.897225 
L 321.145243 151.830515 
L 321.327224 153.236176 
L 321.509205 148.851693 
L 321.691186 214.910864 
L 321.873168 211.838293 
L 322.23713 185.499215 
L 322.419111 198.497268 
L 322.601093 198.404684 
L 322.783074 181.293986 
L 322.965055 193.744127 
L 323.329018 164.716532 
L 323.510999 154.301025 
L 323.69298 160.723371 
L 323.874961 183.626599 
L 324.056943 165.071614 
L 324.238924 166.526525 
L 324.602886 126.350632 
L 324.784868 150.238137 
L 324.966849 152.160877 
L 325.14883 163.546967 
L 325.330811 164.807391 
L 325.694774 156.817331 
L 325.876755 176.804749 
L 326.240717 155.173899 
L 326.422699 158.577219 
L 326.786661 181.236251 
L 326.968642 209.260623 
L 327.150624 203.753466 
L 327.514586 174.768347 
L 327.696567 160.129424 
L 327.878549 167.055953 
L 328.06053 160.57603 
L 328.242511 164.041787 
L 328.424492 154.677736 
L 328.788455 176.010564 
L 329.152417 129.74049 
L 329.334399 157.248148 
L 329.51638 134.33139 
L 329.880342 178.58949 
L 330.062324 147.3318 
L 330.244305 145.484827 
L 330.426286 151.801015 
L 330.608267 152.4077 
L 330.790249 173.393136 
L 330.97223 163.960552 
L 331.336192 220.859476 
L 331.518174 219.930497 
L 332.064117 183.229708 
L 332.246099 180.496642 
L 332.610061 202.125581 
L 332.792042 187.721198 
L 332.974024 183.343226 
L 333.156005 202.730141 
L 333.701949 138.846246 
L 334.247892 112.714784 
L 334.429874 134.320756 
L 334.611855 135.703563 
L 334.793836 115.35145 
L 334.975817 139.012675 
L 335.157799 203.652859 
L 335.521761 128.966901 
L 335.703742 105.150976 
L 335.885724 157.638342 
L 336.067705 164.197809 
L 336.431667 126.984473 
L 336.613649 167.817373 
L 336.79563 160.480538 
L 337.159592 206.766161 
L 337.341574 194.922517 
L 337.523555 203.949008 
L 337.887517 141.11103 
L 338.25148 211.487615 
L 338.433461 184.796681 
L 338.797424 168.718927 
L 338.979405 176.355752 
L 339.161386 171.920812 
L 339.343367 179.579152 
L 339.525349 195.012756 
L 340.071292 123.229859 
L 340.253274 132.610217 
L 340.435255 178.779158 
L 340.617236 186.218844 
L 340.799217 202.634534 
L 340.981199 197.763605 
L 341.345161 156.851413 
L 341.527142 176.917435 
L 341.709124 171.938881 
L 341.891105 175.207087 
L 342.073086 185.586064 
L 342.61903 120.39757 
L 342.801011 147.129989 
L 342.982992 124.341592 
L 343.164974 150.566512 
L 343.346955 145.83739 
L 343.528936 122.710068 
L 343.710917 145.772451 
L 343.892898 138.412227 
L 344.256861 188.991568 
L 344.438842 164.088407 
L 344.620823 166.413923 
L 344.802805 152.878869 
L 344.984786 152.983409 
L 345.166767 219.189313 
L 345.53073 211.621018 
L 345.894692 180.968607 
L 346.076673 176.000489 
L 346.258655 187.925721 
L 346.440636 176.856147 
L 346.804598 195.006624 
L 347.168561 142.700724 
L 347.350542 170.208087 
L 347.714505 132.123656 
L 347.896486 143.859698 
L 348.078467 129.916708 
L 348.260448 153.455553 
L 348.44243 128.129518 
L 348.624411 150.235548 
L 348.806392 145.160848 
L 348.988373 150.279301 
L 349.170355 136.335712 
L 349.352336 139.828082 
L 349.534317 148.133276 
L 349.716298 173.948086 
L 349.89828 152.968427 
L 350.080261 146.958178 
L 350.262242 134.917627 
L 350.444223 158.173369 
L 350.626205 158.41994 
L 351.172148 206.35331 
L 351.35413 200.091608 
L 351.536111 201.757718 
L 351.718092 207.560711 
L 352.082055 186.121203 
L 352.264036 182.37904 
L 352.627998 156.353074 
L 352.991961 158.176023 
L 353.173942 154.47634 
L 353.355923 173.525721 
L 353.537905 135.230124 
L 353.719886 130.681962 
L 353.901867 149.278446 
L 354.083848 110.181567 
L 354.26583 112.074212 
L 354.447811 190.774326 
L 354.629792 208.533578 
L 354.811773 200.99364 
L 354.993755 201.593261 
L 355.175736 176.934403 
L 355.357717 174.305336 
L 355.539698 146.862421 
L 355.72168 157.514028 
L 355.903661 190.715174 
L 356.085642 189.184521 
L 356.267623 204.897398 
L 356.449605 164.728697 
L 356.631586 196.135671 
L 356.813567 179.365511 
L 357.17753 213.964551 
L 357.359511 198.034518 
L 357.541492 204.713536 
L 357.723473 181.111849 
L 357.905455 186.410944 
L 358.269417 155.746625 
L 358.451398 159.39352 
L 358.63338 137.005349 
L 358.997342 164.607922 
L 359.179323 239.758655 
L 359.361305 198.103685 
L 359.543286 193.608448 
L 359.907248 175.086167 
L 360.271211 156.443422 
L 360.453192 189.006311 
L 360.817155 197.631146 
L 360.999136 207.863565 
L 361.181117 206.819596 
L 361.363098 186.450976 
L 361.545079 212.003094 
L 361.909042 162.549043 
L 362.273004 136.120419 
L 362.454986 131.036663 
L 362.636967 241.297957 
L 362.818948 234.153761 
L 363.182911 187.959915 
L 363.546873 179.52624 
L 363.728854 183.866171 
L 363.910836 196.297558 
L 364.092817 189.789902 
L 364.274798 206.059811 
L 364.820742 131.857595 
L 365.002723 159.645034 
L 365.366686 121.93427 
L 365.548667 153.751106 
L 365.730648 146.279047 
L 365.912629 155.320184 
L 366.094611 197.774414 
L 366.276592 179.032976 
L 366.458573 202.369018 
L 366.640554 166.549201 
L 366.822536 159.855202 
L 367.004517 191.308841 
L 367.186498 182.072886 
L 367.368479 188.916139 
L 367.550461 202.666098 
L 368.278386 113.973399 
L 368.460367 219.304128 
L 368.642348 226.183465 
L 369.188292 185.661431 
L 369.370273 187.128209 
L 369.552254 183.001548 
L 369.734236 197.629726 
L 369.916217 187.476818 
L 370.280179 199.902055 
L 370.826123 127.902112 
L 371.008104 151.333957 
L 371.372067 120.81963 
L 371.554048 138.184945 
L 371.736029 117.568711 
L 372.099992 210.000623 
L 372.281973 186.172554 
L 372.463954 185.462292 
L 372.827917 126.035584 
L 373.009898 133.027068 
L 373.191879 122.756306 
L 373.373861 190.598966 
L 373.555842 197.837738 
L 373.737823 174.39508 
L 373.919804 185.272439 
L 374.101786 187.708053 
L 374.283767 155.342615 
L 374.465748 178.673049 
L 374.647729 156.928622 
L 375.011692 171.135018 
L 375.193673 173.855936 
L 375.375654 169.323709 
L 375.557636 177.740461 
L 375.739617 215.121433 
L 375.921598 210.955372 
L 376.103579 195.77318 
L 376.467542 148.611597 
L 376.649523 136.599588 
L 376.831504 221.514736 
L 377.013486 217.032768 
L 377.195467 187.190885 
L 377.377448 182.438557 
L 377.559429 164.476941 
L 377.741411 159.510371 
L 377.923392 167.252159 
L 378.105373 162.358075 
L 378.287354 166.726115 
L 378.651317 197.598645 
L 379.015279 186.787284 
L 379.19726 152.241969 
L 379.379242 138.835289 
L 379.561223 182.781088 
L 379.743204 147.496963 
L 379.925185 177.389452 
L 380.107167 147.160436 
L 380.289148 181.671808 
L 380.471129 149.309397 
L 380.65311 179.630284 
L 380.835092 121.456386 
L 381.017073 104.165302 
L 381.381035 224.696968 
L 381.744998 201.605733 
L 382.10896 163.278592 
L 382.290942 177.420194 
L 382.472923 171.64814 
L 382.654904 170.450636 
L 383.200848 111.531772 
L 383.382829 161.98875 
L 383.56481 171.175452 
L 383.746792 192.376371 
L 384.110754 153.115368 
L 384.474717 166.716564 
L 384.656698 153.908412 
L 384.838679 149.01746 
L 385.02066 167.71463 
L 385.202642 142.010165 
L 385.384623 135.116906 
L 385.748585 205.290344 
L 386.112548 157.643255 
L 386.294529 137.751611 
L 386.47651 160.913247 
L 386.658492 155.629063 
L 386.840473 163.564861 
L 387.022454 144.493474 
L 387.204435 162.850616 
L 387.386417 167.401488 
L 387.568398 143.667221 
L 387.750379 170.87792 
L 387.93236 144.063584 
L 388.114342 167.565052 
L 388.296323 219.720645 
L 388.478304 203.831474 
L 388.660285 169.190107 
L 388.842267 159.989388 
L 389.024248 144.765965 
L 389.206229 160.280154 
L 389.38821 161.523282 
L 389.752173 150.409329 
L 390.116135 163.917271 
L 390.298117 161.214458 
L 390.480098 171.050357 
L 390.84406 211.091055 
L 391.026042 214.894373 
L 391.390004 185.216907 
L 391.571985 177.200971 
L 391.753967 180.057134 
L 391.935948 174.707896 
L 392.117929 202.801141 
L 392.481892 187.078583 
L 392.663873 201.595348 
L 393.391798 123.550509 
L 393.573779 108.035949 
L 393.75576 136.730913 
L 393.937742 116.151096 
L 394.483685 160.11541 
L 394.847648 141.778938 
L 395.029629 149.211819 
L 395.21161 150.640735 
L 395.393592 135.858665 
L 395.575573 139.655124 
L 395.939535 189.836389 
L 396.121517 187.683603 
L 396.303498 150.917028 
L 396.485479 165.105554 
L 396.66746 195.693499 
L 396.849442 204.176618 
L 397.031423 180.714826 
L 397.213404 181.74509 
L 397.395385 205.906737 
L 397.577366 153.2118 
L 397.759348 149.532621 
L 397.941329 135.944389 
L 398.12331 131.61629 
L 398.305291 225.234732 
L 398.487273 207.129886 
L 398.487273 207.129886 
" clip-path="url(#pedea5053a1)" style="fill: none; stroke: #000000; stroke-width: 2.25; stroke-linecap: round"/>
   </g>
   <g id="patch_3">
    <path d="M 57.6 307.584 
L 57.6 41.472 
" style="fill: none; stroke: #262626; stroke-width: 1.875; stroke-linejoin: miter; stroke-linecap: square"/>
   </g>
   <g id="patch_4">
    <path d="M 57.6 307.584 
L 414.72 307.584 
" style="fill: none; stroke: #262626; stroke-width: 1.875; stroke-linejoin: miter; stroke-linecap: square"/>
   </g>
   <g id="text_11">
    <text style="fill: #262626; font: 18px 'sans-serif'; text-anchor: middle" x="236.16" y="35.472" transform="rotate(-0, 236.16, 35.472)">Rewards per Time step</text>
   </g>
  </g>
 </g>
 <defs>
  <clipPath id="pedea5053a1">
   <rect x="57.6" y="41.472" width="357.12" height="266.112"/>
  </clipPath>
 </defs>
</svg>
